<svg width="56" height="56" viewBox="0 0 56 56" fill="none" xmlns="http://www.w3.org/2000/svg">
<circle cx="28" cy="28" r="28" fill="#E8F2FF"/>
<path d="M28 38.75C27.3 38.75 26.59 38.48 26.06 37.95L24.35 36.26C23.92 35.84 23.36 35.61 22.76 35.61H22C19.93 35.61 18.25 33.94 18.25 31.89V20.98C18.25 18.93 19.93 17.26 22 17.26H34C36.07 17.26 37.75 18.93 37.75 20.98V31.89C37.75 33.94 36.07 35.61 34 35.61H33.24C32.64 35.61 32.07 35.84 31.65 36.26L29.94 37.95C29.41 38.48 28.7 38.75 28 38.75ZM22 18.75C20.76 18.75 19.75 19.75 19.75 20.97V31.88C19.75 33.11 20.76 34.1 22 34.1H22.76C23.76 34.1 24.7 34.4899 25.41 35.1899L27.12 36.88C27.61 37.36 28.4 37.36 28.89 36.88L30.6 35.1899C31.31 34.4899 32.25 34.1 33.25 34.1H34C35.24 34.1 36.25 33.1 36.25 31.88V20.97C36.25 19.74 35.24 18.75 34 18.75H22Z" fill="#171725"/>
<path d="M26.3802 30.51H23.7002C23.2602 30.51 22.8502 30.2999 22.5902 29.9399C22.3402 29.5999 22.2802 29.18 22.4002 28.78C22.7502 27.71 23.6102 27.13 24.3702 26.61C25.1702 26.07 25.6202 25.73 25.6202 25.15C25.6202 24.63 25.2002 24.21 24.6802 24.21C24.1602 24.21 23.7402 24.63 23.7402 25.15C23.7402 25.56 23.4002 25.9 22.9902 25.9C22.5802 25.9 22.2402 25.56 22.2402 25.15C22.2402 23.81 23.3302 22.71 24.6802 22.71C26.0302 22.71 27.1202 23.8 27.1202 25.15C27.1202 26.56 26.0602 27.28 25.2102 27.86C24.6802 28.22 24.1802 28.56 23.9302 29.01H26.3702C26.7802 29.01 27.1202 29.35 27.1202 29.76C27.1202 30.17 26.7902 30.51 26.3802 30.51Z" fill="#171725"/>
<path d="M32.0399 30.5101C31.6299 30.5101 31.2899 30.1701 31.2899 29.7601V29.07H29.3299C29.3299 29.07 29.3299 29.07 29.3199 29.07C28.8299 29.07 28.3799 28.8101 28.1299 28.3901C27.8799 27.9601 27.8799 27.4301 28.1299 27.0101C28.8099 25.8401 29.5999 24.51 30.3199 23.35C30.6399 22.84 31.2499 22.6101 31.8199 22.7701C32.3899 22.9401 32.7899 23.4601 32.7799 24.0601V27.58H32.9999C33.4099 27.58 33.7499 27.92 33.7499 28.33C33.7499 28.74 33.4099 29.08 32.9999 29.08H32.7899V29.7701C32.7899 30.1801 32.4599 30.5101 32.0399 30.5101ZM31.2899 24.6401C30.6999 25.6001 30.0899 26.63 29.5399 27.57H31.2899V24.6401Z" fill="#171725"/>
</svg>
