<svg width="56" height="56" viewBox="0 0 56 56" fill="none" xmlns="http://www.w3.org/2000/svg">
<circle cx="28" cy="28" r="28" fill="#E8F2FF"/>
<path d="M34.5 38.75C32.16 38.75 30.25 36.84 30.25 34.5V34C30.25 33.59 30.59 33.25 31 33.25C31.41 33.25 31.75 33.59 31.75 34V34.5C31.75 36.02 32.98 37.25 34.5 37.25C36.02 37.25 37.25 36.02 37.25 34.5C37.25 32.98 36.02 31.75 34.5 31.75H18C17.59 31.75 17.25 31.41 17.25 31C17.25 30.59 17.59 30.25 18 30.25H34.5C36.84 30.25 38.75 32.16 38.75 34.5C38.75 36.84 36.84 38.75 34.5 38.75Z" fill="#171725"/>
<path d="M34.5 28.75H18C17.59 28.75 17.25 28.41 17.25 28C17.25 27.59 17.59 27.25 18 27.25H34.5C36.02 27.25 37.25 26.02 37.25 24.5C37.25 22.98 36.02 21.75 34.5 21.75C32.98 21.75 31.75 22.98 31.75 24.5V25C31.75 25.41 31.41 25.75 31 25.75C30.59 25.75 30.25 25.41 30.25 25V24.5C30.25 22.16 32.16 20.25 34.5 20.25C36.84 20.25 38.75 22.16 38.75 24.5C38.75 26.84 36.84 28.75 34.5 28.75Z" fill="#171725"/>
<path d="M25.31 25.75H18C17.59 25.75 17.25 25.41 17.25 25C17.25 24.59 17.59 24.25 18 24.25H25.31C26.38 24.25 27.25 23.38 27.25 22.31C27.25 21.24 26.38 20.37 25.31 20.37C24.24 20.37 23.37 21.24 23.37 22.31V22.69C23.37 23.1 23.03 23.44 22.62 23.44C22.21 23.44 21.87 23.1 21.87 22.69V22.31C21.87 20.41 23.41 18.87 25.31 18.87C27.21 18.87 28.75 20.41 28.75 22.31C28.75 24.21 27.21 25.75 25.31 25.75Z" fill="#171725"/>
</svg>
