<svg width="28" height="28" viewBox="0 0 28 28" fill="none" xmlns="http://www.w3.org/2000/svg">
<rect width="28" height="28" rx="14" fill="#F5F5F5"/>
<g clip-path="url(#clip0_32137_1679)">
<path fill-rule="evenodd" clip-rule="evenodd" d="M13.5886 21.6563V10.9724L11.3699 10.0239L7.65787 11.6107V21.6563H13.5886Z" fill="#909CD1"/>
<path fill-rule="evenodd" clip-rule="evenodd" d="M11.3699 21.6563H13.5887V10.9724L11.3699 10.0239V21.6563Z" fill="#7986BF"/>
<path fill-rule="evenodd" clip-rule="evenodd" d="M20.3421 21.6562H13.2126V7.86759L16.7774 6.34375L20.3421 7.86759V21.6562Z" fill="#AEAED6"/>
<path fill-rule="evenodd" clip-rule="evenodd" d="M16.7774 21.6562H13.2126V7.86759L16.7774 6.34375V21.6562Z" fill="#D1D1F0"/>
<path fill-rule="evenodd" clip-rule="evenodd" d="M19.2634 8.74341C19.2634 8.63985 19.3474 8.55591 19.4509 8.55591C19.5545 8.55591 19.6384 8.63985 19.6384 8.74341V19.9064C19.6384 20.0099 19.5545 20.0939 19.4509 20.0939C19.3474 20.0939 19.2634 20.0099 19.2634 19.9064V8.74341ZM17.481 7.98151C17.481 7.87794 17.565 7.79401 17.6685 7.79401C17.7721 7.79401 17.856 7.87794 17.856 7.98151V19.9064C17.856 20.0099 17.7721 20.0939 17.6685 20.0939C17.565 20.0939 17.481 20.0099 17.481 19.9064V7.98151ZM18.3722 8.36244C18.3722 8.25888 18.4562 8.17494 18.5597 8.17494C18.6633 8.17494 18.7472 8.25888 18.7472 8.36244V19.9064C18.7472 20.0099 18.6633 20.0939 18.5597 20.0939C18.4562 20.0939 18.3722 20.0099 18.3722 19.9064V8.36244Z" fill="#F3F3FF"/>
<path fill-rule="evenodd" clip-rule="evenodd" d="M10.211 21.6563H8.8168V18.2503L10.211 18.1177V21.6563Z" fill="#F3F3FF"/>
<path fill-rule="evenodd" clip-rule="evenodd" d="M15.0706 16.0991V14.7286L15.8299 14.6114V16.0263L15.0706 16.0991ZM15.0706 13.9396V12.5703L15.8299 12.3829V13.7967L15.0706 13.9396ZM15.0706 11.7813V10.4109L15.8299 10.1534V11.5683L15.0706 11.7813ZM15.0706 9.62296L15.0704 8.33981L15.8298 8.01396V9.33993L15.0706 9.62296H15.0706ZM13.7143 16.2281V14.9392L14.3881 14.8353V16.1636L13.7143 16.2281ZM13.7143 14.1959V12.9039L14.3884 12.7378V14.0693L13.7143 14.1959ZM13.7143 12.1628V10.8707L14.3884 10.6424V11.974L13.7143 12.1628V12.1628ZM13.7143 10.1271V8.92087L14.3886 8.63187L14.3884 9.87715L13.7143 10.1271Z" fill="#AEAED6"/>
<path fill-rule="evenodd" clip-rule="evenodd" d="M15.2935 16.0777V14.6942L16.0528 14.5769V16.0049L15.2935 16.0777ZM15.2935 13.8977V12.5153L16.0528 12.3279V13.7548L15.2935 13.8977V13.8977ZM15.2935 11.7188V10.3353L16.0528 10.0779V11.5059L15.2935 11.7188ZM15.2935 9.53988L15.2933 8.24416L16.0528 7.91832V9.25685L15.2935 9.53988ZM13.9372 16.2068V14.9049L14.6111 14.8009V16.1423L13.9372 16.2068ZM13.9372 14.1541V12.849L14.6113 12.6829V14.0274L13.9372 14.1541ZM13.9372 12.1003V10.7953L14.6113 10.567V11.9115L13.9372 12.1003ZM13.9372 10.0445V8.82526L14.6115 8.53626L14.6113 9.79451L13.9372 10.0444V10.0445Z" fill="#F3F3FF"/>
<path fill-rule="evenodd" clip-rule="evenodd" d="M14.0166 21.6562V17.6834L14.2979 17.6566V21.6562H14.0166Z" fill="#AEAED6"/>
<path fill-rule="evenodd" clip-rule="evenodd" d="M15.6921 21.6563H14.2979V17.6566L15.6921 17.5239V21.6563Z" fill="#F3F3FF"/>
<path fill-rule="evenodd" clip-rule="evenodd" d="M13.873 17.8848C13.7703 17.8944 13.6791 17.819 13.6694 17.7163C13.6597 17.6135 13.7352 17.5224 13.8379 17.5127L15.9433 17.3123C16.046 17.3026 16.1372 17.378 16.1469 17.4808C16.1566 17.5835 16.0812 17.6747 15.9784 17.6843L13.873 17.8848Z" fill="#AEAED6"/>
<path fill-rule="evenodd" clip-rule="evenodd" d="M9.3564 16.4705V15.3539L9.98799 15.2236V16.3834L9.3564 16.4705ZM9.3564 14.7106V13.5937L9.98799 13.3941V14.555L9.3564 14.7106ZM9.35621 12.9512V11.9056L9.98799 11.6379V12.7263L9.35621 12.9512V12.9512ZM8.24706 16.6232V15.5815L8.79546 15.4689V16.5481L8.24706 16.6232ZM8.24706 14.9844V13.943L8.79546 13.7706V14.8495L8.24706 14.9844V14.9844ZM8.24706 13.3441V12.3725L8.79581 12.1414L8.79565 13.1502L8.24706 13.3441Z" fill="#7986BF"/>
<path fill-rule="evenodd" clip-rule="evenodd" d="M9.56033 16.4423V15.3118L10.1919 15.1815V16.3553L9.56033 16.4423ZM9.56033 14.6604V13.5292L10.1919 13.3296V14.5048L9.56033 14.6604ZM9.56015 12.8785V11.8192L10.1919 11.5514V12.6537L9.56015 12.8785ZM8.45099 16.595V15.5394L8.9994 15.4268V16.52L8.45099 16.5951V16.595ZM8.45099 14.9342V13.8785L8.9994 13.7061V14.7993L8.45099 14.9342V14.9342ZM8.45099 13.2719V12.286L8.99974 12.0548L8.99958 13.0779L8.45102 13.2719L8.45099 13.2719Z" fill="#F3F3FF"/>
<path fill-rule="evenodd" clip-rule="evenodd" d="M8.8168 21.6562H8.58386V18.2725L8.8168 18.2503V21.6562Z" fill="#7986BF"/>
<path d="M6.36107 20.8747H21.6389V21.6563H6.36107V20.8747Z" fill="#E6B17C"/>
<path d="M6.36107 21.2655H21.6389V21.6563H6.36107V21.2655Z" fill="#D19458"/>
<path fill-rule="evenodd" clip-rule="evenodd" d="M8.56565 18.4619C8.4629 18.4716 8.37175 18.3962 8.36206 18.2935C8.35237 18.1907 8.42778 18.0996 8.53053 18.0899L10.4622 17.906C10.5649 17.8963 10.6561 17.9718 10.6657 18.0745C10.6754 18.1773 10.6 18.2684 10.4973 18.2781L8.56565 18.4619Z" fill="#3D4A75"/>
</g>
<defs>
<clipPath id="clip0_32137_1679">
<rect width="16" height="16" fill="white" transform="translate(6 6)"/>
</clipPath>
</defs>
</svg>
