<svg width="20" height="24" viewBox="0 0 20 24" fill="none" xmlns="http://www.w3.org/2000/svg">
<path d="M16.3649 13.453C15.7047 10.1305 18.8584 8.18184 18.8584 8.18184C18.8584 8.18184 17.6297 6.4042 15.5647 5.94688C13.5007 5.48857 12.4677 6.06119 11.4367 6.49067C10.4048 6.92119 9.88982 6.92119 9.88982 6.92119C8.40056 6.92119 7.3119 5.34437 4.47448 6.06224C2.5197 6.55555 0.461885 8.81214 0.0900844 11.5054C-0.281716 14.1997 0.520612 17.6376 2.06754 20.302C3.61448 22.9685 5.19029 23.9706 6.30875 23.9994C7.42725 24.0272 8.5437 23.1981 9.88982 22.9963C11.237 22.7964 12.066 23.4845 13.3874 23.8563C14.7036 24.2271 15.1651 23.8831 16.6811 22.5936C18.2012 21.3041 19.5772 17.6057 19.5772 17.6057C19.5772 17.6057 17.0251 16.7776 16.3649 13.453Z" fill="#171725"/>
<path d="M13.442 3.79731C14.9044 2.30705 14.4091 0 14.4091 0C14.4091 0 12.3554 0.360484 10.9794 1.79206C9.60447 3.22469 9.83208 5.48743 9.83208 5.48743C9.83208 5.48743 11.9795 5.28661 13.442 3.79731Z" fill="#171725"/>
</svg>
