<svg width="24" height="24" viewBox="0 0 24 24" fill="none" xmlns="http://www.w3.org/2000/svg">
<path fill-rule="evenodd" clip-rule="evenodd" d="M11.4921 2.03664C11.9061 2.03664 12.2421 2.37264 12.2421 2.78664C12.2421 3.20064 11.9061 3.53664 11.4921 3.53664H7.75311C5.16911 3.53664 3.50011 5.30664 3.50011 8.04565V16.3596C3.50011 19.0986 5.16911 20.8686 7.75311 20.8686H16.5771C19.1611 20.8686 20.8311 19.0986 20.8311 16.3596V12.3316C20.8311 11.9176 21.1671 11.5816 21.5811 11.5816C21.9951 11.5816 22.3311 11.9176 22.3311 12.3316V16.3596C22.3311 19.9536 20.0181 22.3686 16.5771 22.3686H7.75311C4.31211 22.3686 2.00011 19.9536 2.00011 16.3596V8.04565C2.00011 4.45164 4.31211 2.03664 7.75311 2.03664H11.4921ZM20.2017 2.91524L21.4187 4.13224C22.0117 4.72424 22.3377 5.51124 22.3367 6.34924C22.3367 7.18724 22.0107 7.97325 21.4187 8.56425L13.9097 16.0732C13.3587 16.6242 12.6247 16.9282 11.8447 16.9282H8.09871C7.89671 16.9282 7.70271 16.8462 7.56171 16.7012C7.42071 16.5572 7.34371 16.3622 7.34871 16.1592L7.44271 12.3802C7.46171 11.6282 7.76471 10.9212 8.29671 10.3882H8.29771L15.7707 2.91524C16.9927 1.69524 18.9797 1.69524 20.2017 2.91524ZM15.1551 5.65124L9.35771 11.4492C9.09871 11.7082 8.95171 12.0522 8.94271 12.4172L8.86771 15.4282H11.8447C12.2247 15.4282 12.5807 15.2812 12.8497 15.0122L18.6821 9.17825L15.1551 5.65124ZM16.8307 3.97624L16.2151 4.59024L19.7421 8.11825L20.3587 7.50324C20.6667 7.19524 20.8367 6.78524 20.8367 6.34924C20.8367 5.91224 20.6667 5.50124 20.3587 5.19324L19.1417 3.97624C18.5047 3.34124 17.4687 3.34124 16.8307 3.97624Z" fill="#171725"/>
</svg>
