<svg width="24" height="24" viewBox="0 0 24 24" fill="none" xmlns="http://www.w3.org/2000/svg">
<g clip-path="url(#clip0_34327_648)">
<path d="M19 8.71001L13.667 4.56201C13.199 4.19792 12.6229 4.00024 12.03 4.00024C11.437 4.00024 10.861 4.19792 10.393 4.56201L5.05897 8.71001C4.73841 8.9593 4.47906 9.27854 4.30072 9.64336C4.12239 10.0082 4.02978 10.4089 4.02997 10.815V18.015C4.02997 18.5454 4.24068 19.0542 4.61575 19.4292C4.99083 19.8043 5.49954 20.015 6.02997 20.015H18.03C18.5604 20.015 19.0691 19.8043 19.4442 19.4292C19.8193 19.0542 20.03 18.5454 20.03 18.015V10.815C20.03 9.99201 19.65 9.21501 19 8.71001Z" fill="#2853AF" stroke="#2853AF" stroke-width="1.5" stroke-linecap="round" stroke-linejoin="round"/>
<path d="M16 15C13.79 16.333 10.208 16.333 7.99997 15" stroke="#FEFEFE" stroke-width="1.5" stroke-linecap="round" stroke-linejoin="round"/>
</g>
<defs>
<clipPath id="clip0_34327_648">
<rect width="24" height="24" fill="white"/>
</clipPath>
</defs>
</svg>
