<svg width="28" height="28" viewBox="0 0 28 28" fill="none" xmlns="http://www.w3.org/2000/svg">
<rect width="28" height="28" rx="14" fill="#F5F5F5"/>
<g clip-path="url(#clip0_32137_1617)">
<path d="M10.0037 21.8485H6.42419C6.18984 21.8485 5.99988 21.6585 5.99988 21.4242V13.1366C5.99988 12.9023 6.18984 12.7123 6.42419 12.7123H10.0037L10.0037 21.8485Z" fill="url(#paint0_linear_32137_1617)"/>
<path d="M17.996 21.8485H21.5755C21.8099 21.8485 21.9998 21.6585 21.9998 21.4242V13.1366C21.9998 12.9023 21.8099 12.7123 21.5755 12.7123H17.996V21.8485Z" fill="url(#paint1_linear_32137_1617)"/>
<path d="M21.9999 16.0474V21.4241C21.9999 21.6586 21.81 21.8485 21.5755 21.8485H17.996V12.7123H18.6651L21.9999 16.0474Z" fill="url(#paint2_linear_32137_1617)"/>
<path d="M9.33337 9.43542H18.6663V21.8484H9.33337V9.43542Z" fill="url(#paint3_linear_32137_1617)"/>
<path d="M17.8565 21.8484H10.1431C9.92445 21.8484 9.74719 21.6712 9.74719 21.4525V10.3057C9.74719 10.087 9.92445 9.90979 10.1431 9.90979H17.8565C18.0751 9.90979 18.2524 10.087 18.2524 10.3057V21.4525C18.2524 21.6712 18.0751 21.8484 17.8565 21.8484Z" fill="url(#paint4_linear_32137_1617)"/>
<path d="M17.3524 10.5569C17.6027 10.5569 17.8063 10.7605 17.8063 11.0108V12.4881C17.8063 12.7383 17.6027 12.9419 17.3524 12.9419H15.8751C15.6248 12.9419 15.4213 12.7383 15.4213 12.4881V11.0108C15.4213 10.7605 15.6249 10.5569 15.8751 10.5569H17.3524Z" fill="url(#paint5_linear_32137_1617)"/>
<path d="M17.3524 13.152C17.6027 13.152 17.8063 13.3556 17.8063 13.6058V15.0832C17.8063 15.3334 17.6027 15.537 17.3524 15.537H15.8751C15.6248 15.537 15.4213 15.3334 15.4213 15.0832V13.6058C15.4213 13.3556 15.6249 13.152 15.8751 13.152H17.3524Z" fill="url(#paint6_linear_32137_1617)"/>
<path d="M17.3524 15.7471C17.6027 15.7471 17.8063 15.9507 17.8063 16.2009V17.6782C17.8063 17.9285 17.6027 18.1321 17.3524 18.1321H15.8751C15.6248 18.1321 15.4213 17.9285 15.4213 17.6782V16.2009C15.4213 15.9507 15.6249 15.7471 15.8751 15.7471H17.3524Z" fill="url(#paint7_linear_32137_1617)"/>
<path d="M12.1247 10.5569C12.3749 10.5569 12.5785 10.7605 12.5785 11.0108V12.4881C12.5785 12.7383 12.3749 12.9419 12.1247 12.9419H10.6473C10.3971 12.9419 10.1935 12.7383 10.1935 12.4881V11.0108C10.1935 10.7605 10.3971 10.5569 10.6473 10.5569H12.1247Z" fill="url(#paint8_linear_32137_1617)"/>
<path d="M12.1247 13.152C12.3749 13.152 12.5785 13.3556 12.5785 13.6058V15.0832C12.5785 15.3334 12.3749 15.537 12.1247 15.537H10.6473C10.3971 15.537 10.1935 15.3334 10.1935 15.0832V13.6058C10.1935 13.3556 10.3971 13.152 10.6473 13.152H12.1247Z" fill="url(#paint9_linear_32137_1617)"/>
<path d="M12.1247 15.7471C12.3749 15.7471 12.5785 15.9507 12.5785 16.2009V17.6782C12.5785 17.9285 12.3749 18.1321 12.1247 18.1321H10.6473C10.3971 18.1321 10.1935 17.9285 10.1935 17.6782V16.2009C10.1935 15.9507 10.3971 15.7471 10.6473 15.7471H12.1247Z" fill="url(#paint10_linear_32137_1617)"/>
<path d="M14.7384 10.5569C14.9887 10.5569 15.1923 10.7605 15.1923 11.0108V12.4881C15.1923 12.7383 14.9886 12.9419 14.7384 12.9419H13.2611C13.0108 12.9419 12.8073 12.7383 12.8073 12.4881V11.0108C12.8073 10.7605 13.0109 10.5569 13.2611 10.5569H14.7384Z" fill="url(#paint11_linear_32137_1617)"/>
<path d="M14.7384 13.152C14.9887 13.152 15.1923 13.3556 15.1923 13.6058V15.0832C15.1923 15.3334 14.9886 15.537 14.7384 15.537H13.2611C13.0108 15.537 12.8073 15.3334 12.8073 15.0832V13.6058C12.8073 13.3556 13.0109 13.152 13.2611 13.152H14.7384Z" fill="url(#paint12_linear_32137_1617)"/>
<path d="M14.7384 15.7471C14.9887 15.7471 15.1923 15.9507 15.1923 16.2009V17.6782C15.1923 17.9285 14.9886 18.1321 14.7384 18.1321H13.2611C13.0108 18.1321 12.8073 17.9285 12.8073 17.6782V16.2009C12.8073 15.9507 13.0109 15.7471 13.2611 15.7471H14.7384Z" fill="url(#paint13_linear_32137_1617)"/>
<path d="M18.6663 9.43542H9.33337V9.57817L18.6663 18.9111V9.43542Z" fill="url(#paint14_linear_32137_1617)"/>
<path d="M13.9999 21.8484H18.2184C18.4658 21.8484 18.6664 21.6721 18.6664 21.4547V9.43542H13.9999V21.8484Z" fill="url(#paint15_linear_32137_1617)"/>
<path d="M16.0108 18.8017C15.9874 18.7531 15.9382 18.7192 15.8807 18.7192H12.1192C12.0393 18.7192 11.9745 18.784 11.9745 18.8639V19.0569C11.9745 19.1144 12.0083 19.1637 12.0569 19.187L14.7184 21.8485H17.8566H17.8566H18.2464C18.4691 21.8485 18.6508 21.6751 18.665 21.456L16.0108 18.8017Z" fill="url(#paint16_linear_32137_1617)"/>
<path d="M12.2548 19.1415H15.7449V21.8485H12.2548V19.1415Z" fill="url(#paint17_linear_32137_1617)"/>
<path d="M14.7183 21.8485H15.7449V19.1415H12.2548V19.3849L14.7183 21.8485Z" fill="url(#paint18_linear_32137_1617)"/>
<path d="M15.5852 21.8484H12.4144V19.5285C12.4144 19.4292 12.4949 19.3486 12.5942 19.3486H15.4053C15.5046 19.3486 15.5851 19.4291 15.5851 19.5285L15.5852 21.8484Z" fill="url(#paint19_linear_32137_1617)"/>
<path d="M13.9999 19.1415H15.7449V21.8485H13.9999V19.1415Z" fill="url(#paint20_linear_32137_1617)"/>
<path d="M15.8807 19.2016H12.1192C12.0393 19.2016 11.9745 19.1368 11.9745 19.0569V18.8639C11.9745 18.784 12.0393 18.7192 12.1192 18.7192H15.8807C15.9606 18.7192 16.0253 18.784 16.0253 18.8639V19.0569C16.0253 19.1368 15.9606 19.2016 15.8807 19.2016Z" fill="url(#paint21_linear_32137_1617)"/>
<path d="M10.6472 17.9024C10.5236 17.9024 10.423 17.8018 10.423 17.6781V16.2008C10.423 16.0771 10.5236 15.9766 10.6472 15.9766H12.1246C12.2482 15.9766 12.3488 16.0771 12.3488 16.2008V17.6781C12.3488 17.8018 12.2482 17.9024 12.1246 17.9024H10.6472Z" fill="url(#paint22_linear_32137_1617)"/>
<path d="M10.6472 15.3073C10.5236 15.3073 10.423 15.2067 10.423 15.0831V13.6057C10.423 13.4821 10.5236 13.3815 10.6472 13.3815H12.1246C12.2482 13.3815 12.3488 13.4821 12.3488 13.6057V15.0831C12.3488 15.2067 12.2482 15.3073 12.1246 15.3073H10.6472Z" fill="url(#paint23_linear_32137_1617)"/>
<path d="M10.6472 12.7123C10.5236 12.7123 10.423 12.6117 10.423 12.4881V11.0107C10.423 10.8871 10.5236 10.7865 10.6472 10.7865H12.1246C12.2482 10.7865 12.3488 10.8871 12.3488 11.0107V12.4881C12.3488 12.6117 12.2482 12.7123 12.1246 12.7123H10.6472Z" fill="url(#paint24_linear_32137_1617)"/>
<path d="M15.875 17.9024C15.7514 17.9024 15.6508 17.8018 15.6508 17.6781V16.2008C15.6508 16.0771 15.7513 15.9766 15.875 15.9766H17.3523C17.476 15.9766 17.5766 16.0771 17.5766 16.2008V17.6781C17.5766 17.8018 17.476 17.9024 17.3523 17.9024H15.875Z" fill="url(#paint25_linear_32137_1617)"/>
<path d="M15.875 15.3073C15.7514 15.3073 15.6508 15.2067 15.6508 15.0831V13.6057C15.6508 13.4821 15.7513 13.3815 15.875 13.3815H17.3523C17.476 13.3815 17.5766 13.4821 17.5766 13.6057V15.0831C17.5766 15.2067 17.476 15.3073 17.3523 15.3073H15.875Z" fill="url(#paint26_linear_32137_1617)"/>
<path d="M15.875 12.7123C15.7514 12.7123 15.6508 12.6117 15.6508 12.4881V11.0107C15.6508 10.8871 15.7513 10.7865 15.875 10.7865H17.3523C17.476 10.7865 17.5766 10.8871 17.5766 11.0107V12.4881C17.5766 12.6117 17.476 12.7123 17.3523 12.7123H15.875Z" fill="url(#paint27_linear_32137_1617)"/>
<path d="M13.2612 17.9024C13.1376 17.9024 13.037 17.8018 13.037 17.6781V16.2008C13.037 16.0771 13.1376 15.9766 13.2612 15.9766H14.7386C14.8622 15.9766 14.9628 16.0771 14.9628 16.2008V17.6781C14.9628 17.8018 14.8622 17.9024 14.7386 17.9024H13.2612Z" fill="url(#paint28_linear_32137_1617)"/>
<path d="M13.2612 15.3073C13.1376 15.3073 13.037 15.2067 13.037 15.0831V13.6057C13.037 13.4821 13.1376 13.3815 13.2612 13.3815H14.7386C14.8622 13.3815 14.9628 13.4821 14.9628 13.6057V15.0831C14.9628 15.2067 14.8622 15.3073 14.7386 15.3073H13.2612Z" fill="url(#paint29_linear_32137_1617)"/>
<path d="M13.2612 12.7123C13.1376 12.7123 13.037 12.6117 13.037 12.4881V11.0107C13.037 10.8871 13.1376 10.7865 13.2612 10.7865H14.7386C14.8622 10.7865 14.9628 10.8871 14.9628 11.0107V12.4881C14.9628 12.6117 14.8622 12.7123 14.7386 12.7123H13.2612Z" fill="url(#paint30_linear_32137_1617)"/>
<path d="M9.52942 8.45435H9.77996V9.13488H9.52942V8.45435Z" fill="url(#paint31_linear_32137_1617)"/>
<path d="M10.7255 8.45435H10.976V9.13488H10.7255V8.45435Z" fill="url(#paint32_linear_32137_1617)"/>
<path d="M12.1852 8.45435H12.4357V9.13488H12.1852V8.45435Z" fill="url(#paint33_linear_32137_1617)"/>
<path d="M14.0712 8.45435H14.3217V9.13488H14.0712V8.45435Z" fill="url(#paint34_linear_32137_1617)"/>
<path d="M15.9879 8.45435H16.2385V9.13488H15.9879V8.45435Z" fill="url(#paint35_linear_32137_1617)"/>
<path d="M17.7594 8.45435H18.0099V9.13488H17.7594V8.45435Z" fill="url(#paint36_linear_32137_1617)"/>
<path d="M9.38147 8.48693V6.31197C9.38147 6.25954 9.40767 6.21964 9.46012 6.19228C9.51254 6.16492 9.57523 6.15125 9.6482 6.15125C9.72114 6.15125 9.78382 6.16492 9.83628 6.19228C9.8887 6.21964 9.91493 6.25954 9.91493 6.31197V7.1498H10.5955V6.31197C10.5955 6.25954 10.6217 6.21964 10.6741 6.19228C10.7265 6.16492 10.7892 6.15125 10.8622 6.15125C10.9351 6.15125 10.9978 6.16492 11.0503 6.19228C11.1027 6.21964 11.1289 6.25954 11.1289 6.31197V8.48693C11.1289 8.53942 11.1027 8.57986 11.0503 8.60834C10.9978 8.63686 10.9351 8.6511 10.8622 8.6511C10.7892 8.6511 10.7265 8.63689 10.6741 8.60834C10.6216 8.57989 10.5955 8.53942 10.5955 8.48693V7.56019H9.91493V8.48693C9.91493 8.53942 9.8887 8.57986 9.83628 8.60834C9.78379 8.63686 9.72114 8.6511 9.6482 8.6511C9.5752 8.6511 9.51251 8.63689 9.46012 8.60834C9.40763 8.57986 9.38147 8.53942 9.38147 8.48693Z" fill="url(#paint37_linear_32137_1617)"/>
<path d="M11.4711 7.86453V6.9583C11.4711 6.68019 11.5474 6.47611 11.7002 6.34616C11.8529 6.21622 12.0559 6.15125 12.3089 6.15125C12.5642 6.15125 12.7683 6.21622 12.921 6.34616C13.0738 6.47611 13.1502 6.68015 13.1502 6.9583V7.86453C13.1502 8.14271 13.0737 8.34673 12.921 8.47667C12.7683 8.60662 12.5642 8.67159 12.3089 8.67159C12.0559 8.67159 11.8529 8.60662 11.7002 8.47667C11.5474 8.34673 11.4711 8.14271 11.4711 7.86453ZM12.0046 7.86453C12.0046 8.09255 12.106 8.20652 12.3089 8.20652C12.5141 8.20652 12.6167 8.09255 12.6167 7.86453V6.9583C12.6167 6.73035 12.5141 6.61631 12.3089 6.61631C12.106 6.61631 12.0046 6.73035 12.0046 6.9583V7.86453Z" fill="url(#paint38_linear_32137_1617)"/>
<path d="M13.2972 6.38048C13.2972 6.31849 13.3109 6.26478 13.3383 6.21935C13.3656 6.17393 13.4055 6.15125 13.458 6.15125H14.9353C14.9877 6.15125 15.0276 6.17393 15.055 6.21935C15.0823 6.26478 15.096 6.31849 15.096 6.38048C15.096 6.44693 15.0817 6.50284 15.0533 6.54826C15.0248 6.59366 14.9854 6.61631 14.9353 6.61631H14.4634V8.4858C14.4634 8.5386 14.4371 8.57936 14.3847 8.60806C14.3322 8.63677 14.2696 8.65107 14.1966 8.65107C14.1236 8.65107 14.0609 8.63677 14.0086 8.60806C13.9561 8.57936 13.9299 8.5386 13.9299 8.4858V6.61631H13.458C13.4078 6.61631 13.3685 6.59366 13.34 6.54826C13.3115 6.50284 13.2972 6.44696 13.2972 6.38048Z" fill="url(#paint39_linear_32137_1617)"/>
<path d="M15.308 8.48693V6.31539C15.308 6.26296 15.3308 6.22252 15.3764 6.19401C15.422 6.16552 15.4767 6.15125 15.5405 6.15125H16.758C16.8104 6.15125 16.8503 6.17405 16.8776 6.21964C16.905 6.26528 16.9187 6.31881 16.9187 6.38036C16.9187 6.44652 16.9044 6.50234 16.8759 6.54792C16.8474 6.59357 16.8081 6.61631 16.758 6.61631H15.8415V7.19426H16.3544C16.4045 7.19426 16.4439 7.21477 16.4724 7.25581C16.5009 7.29685 16.5152 7.34591 16.5152 7.40285C16.5152 7.45534 16.5015 7.50202 16.4741 7.54306C16.4468 7.58409 16.4069 7.60461 16.3544 7.60461H15.8415V8.18598H16.758C16.8081 8.18598 16.8474 8.20878 16.876 8.25437C16.9044 8.29998 16.9187 8.35583 16.9187 8.42193C16.9187 8.48348 16.905 8.53707 16.8777 8.58265C16.8503 8.6283 16.8104 8.65104 16.758 8.65104H15.5405C15.4767 8.65104 15.422 8.63683 15.3764 8.60828C15.3308 8.57986 15.308 8.53942 15.308 8.48693Z" fill="url(#paint40_linear_32137_1617)"/>
<path d="M17.151 8.48693V6.31197C17.151 6.25954 17.1772 6.21964 17.2297 6.19228C17.2821 6.16492 17.3448 6.15125 17.4177 6.15125C17.4907 6.15125 17.5534 6.16492 17.6058 6.19228C17.6582 6.21964 17.6845 6.25954 17.6845 6.31197V8.18601H18.4642C18.512 8.18601 18.5497 8.20881 18.577 8.2544C18.6044 8.30001 18.618 8.35473 18.618 8.41854C18.618 8.48241 18.6044 8.53713 18.577 8.58271C18.5497 8.62836 18.512 8.6511 18.4642 8.6511H17.3835C17.3197 8.6511 17.2649 8.63689 17.2194 8.60834C17.1738 8.57986 17.151 8.53942 17.151 8.48693Z" fill="url(#paint41_linear_32137_1617)"/>
<path d="M18.8319 9.57822H9.16785C9.08183 9.57822 9.01208 9.50848 9.01208 9.42245V9.00489C9.01208 8.91886 9.08183 8.84912 9.16785 8.84912H18.8319C18.918 8.84912 18.9877 8.91886 18.9877 9.00489V9.42245C18.9877 9.50848 18.918 9.57822 18.8319 9.57822Z" fill="url(#paint42_linear_32137_1617)"/>
<path d="M12.1246 10.7865H10.6472C10.6161 10.7865 10.5864 10.7929 10.5594 10.8044L12.3309 12.5758C12.3424 12.5489 12.3488 12.5192 12.3488 12.4881V11.0107C12.3488 10.8871 12.2482 10.7865 12.1246 10.7865Z" fill="url(#paint43_linear_32137_1617)"/>
<path d="M14.7385 10.7865H13.9999V12.7123H14.7385C14.8622 12.7123 14.9628 12.6117 14.9628 12.4881V11.0107C14.9628 10.8871 14.8622 10.7865 14.7385 10.7865Z" fill="url(#paint44_linear_32137_1617)"/>
<path d="M8.45937 13.152C8.70963 13.152 8.9132 13.3556 8.9132 13.6058V15.0832C8.9132 15.3334 8.70959 15.537 8.45937 15.537H6.98203C6.73177 15.537 6.5282 15.3334 6.5282 15.0832V13.6058C6.5282 13.3556 6.73181 13.152 6.98203 13.152H8.45937Z" fill="url(#paint45_linear_32137_1617)"/>
<path d="M8.45937 15.7471C8.70963 15.7471 8.9132 15.9507 8.9132 16.2009V17.6783C8.9132 17.9285 8.70959 18.1321 8.45937 18.1321H6.98203C6.73177 18.1321 6.5282 17.9285 6.5282 17.6783V16.2009C6.5282 15.9507 6.73181 15.7471 6.98203 15.7471H8.45937Z" fill="url(#paint46_linear_32137_1617)"/>
<path d="M8.45937 18.342C8.70963 18.342 8.9132 18.5456 8.9132 18.7959V20.2732C8.9132 20.5234 8.70959 20.727 8.45937 20.727H6.98203C6.73177 20.727 6.5282 20.5234 6.5282 20.2732V18.7959C6.5282 18.5456 6.73181 18.342 6.98203 18.342H8.45937Z" fill="url(#paint47_linear_32137_1617)"/>
<path d="M6.98194 20.4975C6.8583 20.4975 6.75769 20.3968 6.75769 20.2732V18.7959C6.75769 18.6722 6.85827 18.5717 6.98194 18.5717H8.45927C8.58291 18.5717 8.68353 18.6722 8.68353 18.7959V20.2732C8.68353 20.3968 8.58295 20.4975 8.45927 20.4975H6.98194Z" fill="url(#paint48_linear_32137_1617)"/>
<path d="M6.98194 17.9024C6.8583 17.9024 6.75769 17.8018 6.75769 17.6781V16.2008C6.75769 16.0771 6.85827 15.9766 6.98194 15.9766H8.45927C8.58291 15.9766 8.68353 16.0771 8.68353 16.2008V17.6781C8.68353 17.8018 8.58295 17.9024 8.45927 17.9024H6.98194Z" fill="url(#paint49_linear_32137_1617)"/>
<path d="M6.98194 15.3074C6.8583 15.3074 6.75769 15.2068 6.75769 15.0831V13.6058C6.75769 13.4822 6.85827 13.3816 6.98194 13.3816H8.45927C8.58291 13.3816 8.68353 13.4822 8.68353 13.6058V15.0831C8.68353 15.2068 8.58295 15.3074 8.45927 15.3074H6.98194Z" fill="url(#paint50_linear_32137_1617)"/>
<path d="M21.0177 13.152C21.268 13.152 21.4716 13.3556 21.4716 13.6058V15.0832C21.4716 15.3334 21.2679 15.537 21.0177 15.537H19.5404C19.2901 15.537 19.0865 15.3334 19.0865 15.0832V13.6058C19.0865 13.3556 19.2902 13.152 19.5404 13.152H21.0177Z" fill="url(#paint51_linear_32137_1617)"/>
<path d="M21.0177 15.7471C21.268 15.7471 21.4716 15.9507 21.4716 16.2009V17.6783C21.4716 17.9285 21.2679 18.1321 21.0177 18.1321H19.5404C19.2901 18.1321 19.0865 17.9285 19.0865 17.6783V16.2009C19.0865 15.9507 19.2902 15.7471 19.5404 15.7471H21.0177Z" fill="url(#paint52_linear_32137_1617)"/>
<path d="M21.0177 18.342C21.268 18.342 21.4716 18.5456 21.4716 18.7959V20.2732C21.4716 20.5234 21.2679 20.727 21.0177 20.727H19.5404C19.2901 20.727 19.0865 20.5234 19.0865 20.2732V18.7959C19.0865 18.5456 19.2902 18.342 19.5404 18.342H21.0177Z" fill="url(#paint53_linear_32137_1617)"/>
<path d="M19.5403 20.4975C19.4167 20.4975 19.316 20.3968 19.316 20.2732V18.7959C19.316 18.6722 19.4166 18.5717 19.5403 18.5717H21.0176C21.1413 18.5717 21.2419 18.6722 21.2419 18.7959V20.2732C21.2419 20.3968 21.1413 20.4975 21.0176 20.4975H19.5403Z" fill="url(#paint54_linear_32137_1617)"/>
<path d="M19.5403 17.9024C19.4167 17.9024 19.316 17.8018 19.316 17.6781V16.2008C19.316 16.0771 19.4166 15.9766 19.5403 15.9766H21.0176C21.1413 15.9766 21.2419 16.0771 21.2419 16.2008V17.6781C21.2419 17.8018 21.1413 17.9024 21.0176 17.9024H19.5403Z" fill="url(#paint55_linear_32137_1617)"/>
<path d="M19.5403 15.3074C19.4167 15.3074 19.316 15.2068 19.316 15.0831V13.6058C19.316 13.4822 19.4166 13.3816 19.5403 13.3816H21.0176C21.1413 13.3816 21.2419 13.4822 21.2419 13.6058V15.0831C21.2419 15.2068 21.1413 15.3074 21.0176 15.3074H19.5403Z" fill="url(#paint56_linear_32137_1617)"/>
<path d="M19.3913 13.4387C19.3452 13.4798 19.316 13.5394 19.316 13.6058V15.0831C19.316 15.2068 19.4166 15.3074 19.5403 15.3074H21.0176C21.084 15.3074 21.1435 15.2782 21.1846 15.2323L19.3913 13.4387Z" fill="url(#paint57_linear_32137_1617)"/>
</g>
<defs>
<linearGradient id="paint0_linear_32137_1617" x1="6.1671" y1="14.8289" x2="10.1865" y2="19.8968" gradientUnits="userSpaceOnUse">
<stop stop-color="#4A98F7"/>
<stop offset="1" stop-color="#0469BC"/>
</linearGradient>
<linearGradient id="paint1_linear_32137_1617" x1="18.2555" y1="15.6623" x2="22.0434" y2="19.4501" gradientUnits="userSpaceOnUse">
<stop stop-color="#4A98F7"/>
<stop offset="1" stop-color="#0469BC"/>
</linearGradient>
<linearGradient id="paint2_linear_32137_1617" x1="21.1999" y1="17.2804" x2="16.3812" y2="17.2804" gradientUnits="userSpaceOnUse">
<stop stop-color="#0469BC" stop-opacity="0"/>
<stop offset="1" stop-color="#0469BC"/>
</linearGradient>
<linearGradient id="paint3_linear_32137_1617" x1="10.5098" y1="12.1518" x2="22.5072" y2="24.1492" gradientUnits="userSpaceOnUse">
<stop stop-color="#4A98F7"/>
<stop offset="1" stop-color="#0469BC"/>
</linearGradient>
<linearGradient id="paint4_linear_32137_1617" x1="12.7424" y1="15.0042" x2="6.50114" y2="10.6615" gradientUnits="userSpaceOnUse">
<stop stop-color="#18CFFC" stop-opacity="0"/>
<stop offset="1" stop-color="#65E1DC"/>
</linearGradient>
<linearGradient id="paint5_linear_32137_1617" x1="17.7673" y1="12.2909" x2="14.0718" y2="10.556" gradientUnits="userSpaceOnUse">
<stop stop-color="#4A98F7"/>
<stop offset="1" stop-color="#0469BC"/>
</linearGradient>
<linearGradient id="paint6_linear_32137_1617" x1="17.7673" y1="14.886" x2="14.0718" y2="13.1511" gradientUnits="userSpaceOnUse">
<stop stop-color="#4A98F7"/>
<stop offset="1" stop-color="#0469BC"/>
</linearGradient>
<linearGradient id="paint7_linear_32137_1617" x1="17.7673" y1="17.4811" x2="14.0718" y2="15.7462" gradientUnits="userSpaceOnUse">
<stop stop-color="#4A98F7"/>
<stop offset="1" stop-color="#0469BC"/>
</linearGradient>
<linearGradient id="paint8_linear_32137_1617" x1="12.5395" y1="12.2909" x2="8.84402" y2="10.556" gradientUnits="userSpaceOnUse">
<stop stop-color="#4A98F7"/>
<stop offset="1" stop-color="#0469BC"/>
</linearGradient>
<linearGradient id="paint9_linear_32137_1617" x1="12.5395" y1="14.886" x2="8.84402" y2="13.1511" gradientUnits="userSpaceOnUse">
<stop stop-color="#4A98F7"/>
<stop offset="1" stop-color="#0469BC"/>
</linearGradient>
<linearGradient id="paint10_linear_32137_1617" x1="12.5395" y1="17.4811" x2="8.84402" y2="15.7462" gradientUnits="userSpaceOnUse">
<stop stop-color="#4A98F7"/>
<stop offset="1" stop-color="#0469BC"/>
</linearGradient>
<linearGradient id="paint11_linear_32137_1617" x1="15.1533" y1="12.2909" x2="11.4578" y2="10.556" gradientUnits="userSpaceOnUse">
<stop stop-color="#4A98F7"/>
<stop offset="1" stop-color="#0469BC"/>
</linearGradient>
<linearGradient id="paint12_linear_32137_1617" x1="15.1533" y1="14.886" x2="11.4578" y2="13.1511" gradientUnits="userSpaceOnUse">
<stop stop-color="#4A98F7"/>
<stop offset="1" stop-color="#0469BC"/>
</linearGradient>
<linearGradient id="paint13_linear_32137_1617" x1="15.1533" y1="17.4811" x2="11.4578" y2="15.7462" gradientUnits="userSpaceOnUse">
<stop stop-color="#4A98F7"/>
<stop offset="1" stop-color="#0469BC"/>
</linearGradient>
<linearGradient id="paint14_linear_32137_1617" x1="14.4344" y1="11.65" x2="13.3788" y2="6.44342" gradientUnits="userSpaceOnUse">
<stop stop-color="#0469BC" stop-opacity="0"/>
<stop offset="1" stop-color="#0469BC"/>
</linearGradient>
<linearGradient id="paint15_linear_32137_1617" x1="15.7012" y1="14.7019" x2="9.9798" y2="6.19069" gradientUnits="userSpaceOnUse">
<stop stop-color="#0469BC" stop-opacity="0"/>
<stop offset="1" stop-color="#0469BC"/>
</linearGradient>
<linearGradient id="paint16_linear_32137_1617" x1="15.6427" y1="21.4577" x2="15.0447" y2="19.2509" gradientUnits="userSpaceOnUse">
<stop stop-color="#0469BC" stop-opacity="0"/>
<stop offset="1" stop-color="#0469BC"/>
</linearGradient>
<linearGradient id="paint17_linear_32137_1617" x1="12.2693" y1="19.6826" x2="17.8133" y2="22.2853" gradientUnits="userSpaceOnUse">
<stop stop-color="#F9F7FC"/>
<stop offset="1" stop-color="#F0DDFC"/>
</linearGradient>
<linearGradient id="paint18_linear_32137_1617" x1="14.4701" y1="20.7839" x2="13.2976" y2="16.9926" gradientUnits="userSpaceOnUse">
<stop stop-color="#F0DDFC" stop-opacity="0"/>
<stop offset="0.2889" stop-color="#C8B7E0" stop-opacity="0.289"/>
<stop offset="0.5915" stop-color="#A595C8" stop-opacity="0.592"/>
<stop offset="0.8395" stop-color="#8F81B8" stop-opacity="0.84"/>
<stop offset="1" stop-color="#8779B3"/>
</linearGradient>
<linearGradient id="paint19_linear_32137_1617" x1="14.0941" y1="20.8601" x2="13.3938" y2="19.4304" gradientUnits="userSpaceOnUse">
<stop stop-color="#E9EDF5" stop-opacity="0"/>
<stop offset="1" stop-color="white"/>
</linearGradient>
<linearGradient id="paint20_linear_32137_1617" x1="15.0284" y1="20.5436" x2="12.0148" y2="19.6037" gradientUnits="userSpaceOnUse">
<stop stop-color="#F0DDFC" stop-opacity="0"/>
<stop offset="0.2889" stop-color="#C8B7E0" stop-opacity="0.289"/>
<stop offset="0.5915" stop-color="#A595C8" stop-opacity="0.592"/>
<stop offset="0.8395" stop-color="#8F81B8" stop-opacity="0.84"/>
<stop offset="1" stop-color="#8779B3"/>
</linearGradient>
<linearGradient id="paint21_linear_32137_1617" x1="13.9999" y1="18.7833" x2="13.9999" y2="19.2121" gradientUnits="userSpaceOnUse">
<stop stop-color="#FFDA45"/>
<stop offset="1" stop-color="#FFA425"/>
</linearGradient>
<linearGradient id="paint22_linear_32137_1617" x1="10.4167" y1="16.4845" x2="13.5216" y2="17.9421" gradientUnits="userSpaceOnUse">
<stop stop-color="#F9F7FC"/>
<stop offset="1" stop-color="#F0DDFC"/>
</linearGradient>
<linearGradient id="paint23_linear_32137_1617" x1="10.4167" y1="13.8894" x2="13.5216" y2="15.347" gradientUnits="userSpaceOnUse">
<stop stop-color="#F9F7FC"/>
<stop offset="1" stop-color="#F0DDFC"/>
</linearGradient>
<linearGradient id="paint24_linear_32137_1617" x1="10.4168" y1="11.2944" x2="13.5216" y2="12.752" gradientUnits="userSpaceOnUse">
<stop stop-color="#F9F7FC"/>
<stop offset="1" stop-color="#F0DDFC"/>
</linearGradient>
<linearGradient id="paint25_linear_32137_1617" x1="15.6445" y1="16.4845" x2="18.7494" y2="17.9421" gradientUnits="userSpaceOnUse">
<stop stop-color="#F9F7FC"/>
<stop offset="1" stop-color="#F0DDFC"/>
</linearGradient>
<linearGradient id="paint26_linear_32137_1617" x1="15.6445" y1="13.8894" x2="18.7494" y2="15.347" gradientUnits="userSpaceOnUse">
<stop stop-color="#F9F7FC"/>
<stop offset="1" stop-color="#F0DDFC"/>
</linearGradient>
<linearGradient id="paint27_linear_32137_1617" x1="15.6445" y1="11.2944" x2="18.7494" y2="12.752" gradientUnits="userSpaceOnUse">
<stop stop-color="#F9F7FC"/>
<stop offset="1" stop-color="#F0DDFC"/>
</linearGradient>
<linearGradient id="paint28_linear_32137_1617" x1="13.0307" y1="16.4845" x2="16.1356" y2="17.9421" gradientUnits="userSpaceOnUse">
<stop stop-color="#F9F7FC"/>
<stop offset="1" stop-color="#F0DDFC"/>
</linearGradient>
<linearGradient id="paint29_linear_32137_1617" x1="13.0307" y1="13.8894" x2="16.1356" y2="15.347" gradientUnits="userSpaceOnUse">
<stop stop-color="#F9F7FC"/>
<stop offset="1" stop-color="#F0DDFC"/>
</linearGradient>
<linearGradient id="paint30_linear_32137_1617" x1="13.0308" y1="11.2944" x2="16.1356" y2="12.752" gradientUnits="userSpaceOnUse">
<stop stop-color="#F9F7FC"/>
<stop offset="1" stop-color="#F0DDFC"/>
</linearGradient>
<linearGradient id="paint31_linear_32137_1617" x1="9.52434" y1="8.79458" x2="9.75398" y2="8.79458" gradientUnits="userSpaceOnUse">
<stop stop-color="#7E8595"/>
<stop offset="1" stop-color="#555A66"/>
</linearGradient>
<linearGradient id="paint32_linear_32137_1617" x1="10.7204" y1="8.79458" x2="10.95" y2="8.79458" gradientUnits="userSpaceOnUse">
<stop stop-color="#7E8595"/>
<stop offset="1" stop-color="#555A66"/>
</linearGradient>
<linearGradient id="paint33_linear_32137_1617" x1="12.1801" y1="8.79458" x2="12.4097" y2="8.79458" gradientUnits="userSpaceOnUse">
<stop stop-color="#7E8595"/>
<stop offset="1" stop-color="#555A66"/>
</linearGradient>
<linearGradient id="paint34_linear_32137_1617" x1="14.0661" y1="8.79458" x2="14.2957" y2="8.79458" gradientUnits="userSpaceOnUse">
<stop stop-color="#7E8595"/>
<stop offset="1" stop-color="#555A66"/>
</linearGradient>
<linearGradient id="paint35_linear_32137_1617" x1="15.9828" y1="8.79458" x2="16.2125" y2="8.79458" gradientUnits="userSpaceOnUse">
<stop stop-color="#7E8595"/>
<stop offset="1" stop-color="#555A66"/>
</linearGradient>
<linearGradient id="paint36_linear_32137_1617" x1="17.7543" y1="8.79458" x2="17.984" y2="8.79458" gradientUnits="userSpaceOnUse">
<stop stop-color="#7E8595"/>
<stop offset="1" stop-color="#555A66"/>
</linearGradient>
<linearGradient id="paint37_linear_32137_1617" x1="10.2552" y1="6.48621" x2="10.2552" y2="10.8353" gradientUnits="userSpaceOnUse">
<stop stop-color="#FF7044"/>
<stop offset="1" stop-color="#F92814"/>
</linearGradient>
<linearGradient id="paint38_linear_32137_1617" x1="12.3106" y1="6.48621" x2="12.3106" y2="10.8353" gradientUnits="userSpaceOnUse">
<stop stop-color="#FF7044"/>
<stop offset="1" stop-color="#F92814"/>
</linearGradient>
<linearGradient id="paint39_linear_32137_1617" x1="14.1966" y1="6.48621" x2="14.1966" y2="10.8353" gradientUnits="userSpaceOnUse">
<stop stop-color="#FF7044"/>
<stop offset="1" stop-color="#F92814"/>
</linearGradient>
<linearGradient id="paint40_linear_32137_1617" x1="16.1133" y1="6.48621" x2="16.1133" y2="10.8353" gradientUnits="userSpaceOnUse">
<stop stop-color="#FF7044"/>
<stop offset="1" stop-color="#F92814"/>
</linearGradient>
<linearGradient id="paint41_linear_32137_1617" x1="17.8846" y1="6.48621" x2="17.8846" y2="10.8353" gradientUnits="userSpaceOnUse">
<stop stop-color="#FF7044"/>
<stop offset="1" stop-color="#F92814"/>
</linearGradient>
<linearGradient id="paint42_linear_32137_1617" x1="13.9999" y1="8.89662" x2="13.9999" y2="10.0945" gradientUnits="userSpaceOnUse">
<stop stop-color="#FFDA45"/>
<stop offset="1" stop-color="#FFA425"/>
</linearGradient>
<linearGradient id="paint43_linear_32137_1617" x1="12.6963" y1="12.507" x2="9.189" y2="7.8846" gradientUnits="userSpaceOnUse">
<stop stop-color="#F0DDFC" stop-opacity="0"/>
<stop offset="0.2889" stop-color="#C8B7E0" stop-opacity="0.289"/>
<stop offset="0.5915" stop-color="#A595C8" stop-opacity="0.592"/>
<stop offset="0.8395" stop-color="#8F81B8" stop-opacity="0.84"/>
<stop offset="1" stop-color="#8779B3"/>
</linearGradient>
<linearGradient id="paint44_linear_32137_1617" x1="14.6034" y1="12.4881" x2="13.7696" y2="8.13392" gradientUnits="userSpaceOnUse">
<stop stop-color="#F0DDFC" stop-opacity="0"/>
<stop offset="0.2889" stop-color="#C8B7E0" stop-opacity="0.289"/>
<stop offset="0.5915" stop-color="#A595C8" stop-opacity="0.592"/>
<stop offset="0.8395" stop-color="#8F81B8" stop-opacity="0.84"/>
<stop offset="1" stop-color="#8779B3"/>
</linearGradient>
<linearGradient id="paint45_linear_32137_1617" x1="8.87424" y1="14.886" x2="5.17871" y2="13.1511" gradientUnits="userSpaceOnUse">
<stop stop-color="#4A98F7"/>
<stop offset="1" stop-color="#0469BC"/>
</linearGradient>
<linearGradient id="paint46_linear_32137_1617" x1="8.87424" y1="17.4811" x2="5.17871" y2="15.7462" gradientUnits="userSpaceOnUse">
<stop stop-color="#4A98F7"/>
<stop offset="1" stop-color="#0469BC"/>
</linearGradient>
<linearGradient id="paint47_linear_32137_1617" x1="8.87421" y1="20.0761" x2="5.17871" y2="18.3412" gradientUnits="userSpaceOnUse">
<stop stop-color="#4A98F7"/>
<stop offset="1" stop-color="#0469BC"/>
</linearGradient>
<linearGradient id="paint48_linear_32137_1617" x1="6.75145" y1="19.0795" x2="9.85626" y2="20.5371" gradientUnits="userSpaceOnUse">
<stop stop-color="#F9F7FC"/>
<stop offset="1" stop-color="#F0DDFC"/>
</linearGradient>
<linearGradient id="paint49_linear_32137_1617" x1="6.75145" y1="16.4845" x2="9.85626" y2="17.9421" gradientUnits="userSpaceOnUse">
<stop stop-color="#F9F7FC"/>
<stop offset="1" stop-color="#F0DDFC"/>
</linearGradient>
<linearGradient id="paint50_linear_32137_1617" x1="6.75145" y1="13.8895" x2="9.85626" y2="15.3471" gradientUnits="userSpaceOnUse">
<stop stop-color="#F9F7FC"/>
<stop offset="1" stop-color="#F0DDFC"/>
</linearGradient>
<linearGradient id="paint51_linear_32137_1617" x1="21.4326" y1="14.886" x2="17.7371" y2="13.1511" gradientUnits="userSpaceOnUse">
<stop stop-color="#4A98F7"/>
<stop offset="1" stop-color="#0469BC"/>
</linearGradient>
<linearGradient id="paint52_linear_32137_1617" x1="21.4326" y1="17.4811" x2="17.7371" y2="15.7462" gradientUnits="userSpaceOnUse">
<stop stop-color="#4A98F7"/>
<stop offset="1" stop-color="#0469BC"/>
</linearGradient>
<linearGradient id="paint53_linear_32137_1617" x1="21.4326" y1="20.0761" x2="17.7371" y2="18.3412" gradientUnits="userSpaceOnUse">
<stop stop-color="#4A98F7"/>
<stop offset="1" stop-color="#0469BC"/>
</linearGradient>
<linearGradient id="paint54_linear_32137_1617" x1="19.3098" y1="19.0795" x2="22.4146" y2="20.5371" gradientUnits="userSpaceOnUse">
<stop stop-color="#F9F7FC"/>
<stop offset="1" stop-color="#F0DDFC"/>
</linearGradient>
<linearGradient id="paint55_linear_32137_1617" x1="19.3098" y1="16.4845" x2="22.4146" y2="17.9421" gradientUnits="userSpaceOnUse">
<stop stop-color="#F9F7FC"/>
<stop offset="1" stop-color="#F0DDFC"/>
</linearGradient>
<linearGradient id="paint56_linear_32137_1617" x1="19.3098" y1="13.8895" x2="22.4146" y2="15.3471" gradientUnits="userSpaceOnUse">
<stop stop-color="#F9F7FC"/>
<stop offset="1" stop-color="#F0DDFC"/>
</linearGradient>
<linearGradient id="paint57_linear_32137_1617" x1="20.7905" y1="15.806" x2="16.6809" y2="11.1978" gradientUnits="userSpaceOnUse">
<stop stop-color="#F0DDFC" stop-opacity="0"/>
<stop offset="0.2889" stop-color="#C8B7E0" stop-opacity="0.289"/>
<stop offset="0.5915" stop-color="#A595C8" stop-opacity="0.592"/>
<stop offset="0.8395" stop-color="#8F81B8" stop-opacity="0.84"/>
<stop offset="1" stop-color="#8779B3"/>
</linearGradient>
<clipPath id="clip0_32137_1617">
<rect width="16" height="16" fill="white" transform="translate(6 6)"/>
</clipPath>
</defs>
</svg>
