<svg width="14" height="14" viewBox="0 0 14 14" fill="none" xmlns="http://www.w3.org/2000/svg">
<g clip-path="url(#clip0_32140_3163)">
<path d="M12.0283 4.92918C11.4158 2.23418 9.06499 1.02084 6.99999 1.02084C6.99999 1.02084 6.99999 1.02084 6.99416 1.02084C4.93499 1.02084 2.57833 2.22834 1.96583 4.92334C1.28333 7.93334 3.12666 10.4825 4.79499 12.0867C5.41333 12.6817 6.20666 12.9792 6.99999 12.9792C7.79333 12.9792 8.58666 12.6817 9.19916 12.0867C10.8675 10.4825 12.7108 7.93918 12.0283 4.92918ZM6.99999 7.85168C5.98499 7.85168 5.16249 7.02918 5.16249 6.01418C5.16249 4.99918 5.98499 4.17668 6.99999 4.17668C8.01499 4.17668 8.83749 4.99918 8.83749 6.01418C8.83749 7.02918 8.01499 7.85168 6.99999 7.85168Z" fill="#66707A"/>
</g>
<defs>
<clipPath id="clip0_32140_3163">
<rect width="14" height="14" fill="white"/>
</clipPath>
</defs>
</svg>
