<svg width="16" height="16" viewBox="0 0 16 16" fill="none" xmlns="http://www.w3.org/2000/svg">
<path fill-rule="evenodd" clip-rule="evenodd" d="M2.16682 6.76215C2.16682 3.49615 4.77015 0.833481 8.00015 0.833481C11.2301 0.833481 13.8335 3.49615 13.8335 6.76215C13.8335 8.33881 13.3841 10.0321 12.5895 11.4948C11.7962 12.9555 10.6375 14.2248 9.18682 14.9028C8.81536 15.0766 8.41026 15.1667 8.00015 15.1667C7.59004 15.1667 7.18494 15.0766 6.81348 14.9028C5.36282 14.2248 4.20415 12.9561 3.41082 11.4948C2.61615 10.0321 2.16682 8.33881 2.16682 6.76215ZM8.00015 1.83348C5.33882 1.83348 3.16682 4.03148 3.16682 6.76215C3.16682 8.16015 3.56882 9.69015 4.28948 11.0175C5.01082 12.3461 6.03082 13.4335 7.23615 13.9968C7.47516 14.1088 7.73587 14.1668 7.99982 14.1668C8.26376 14.1668 8.52447 14.1088 8.76348 13.9968C9.96948 13.4335 10.9895 12.3461 11.7108 11.0175C12.4315 9.69081 12.8335 8.16015 12.8335 6.76215C12.8335 4.03148 10.6615 1.83348 8.00015 1.83348ZM8.00015 5.16681C7.80317 5.16681 7.60811 5.20561 7.42612 5.28099C7.24414 5.35638 7.07878 5.46687 6.93949 5.60615C6.8002 5.74544 6.68971 5.9108 6.61433 6.09279C6.53895 6.27478 6.50015 6.46983 6.50015 6.66681C6.50015 6.8638 6.53895 7.05885 6.61433 7.24084C6.68971 7.42283 6.8002 7.58819 6.93949 7.72747C7.07878 7.86676 7.24414 7.97725 7.42612 8.05263C7.60811 8.12802 7.80317 8.16681 8.00015 8.16681C8.39797 8.16681 8.77951 8.00878 9.06081 7.72747C9.34211 7.44617 9.50015 7.06464 9.50015 6.66681C9.50015 6.26899 9.34211 5.88746 9.06081 5.60615C8.77951 5.32485 8.39797 5.16681 8.00015 5.16681ZM5.50015 6.66681C5.50015 6.00377 5.76354 5.36789 6.23238 4.89905C6.70122 4.43021 7.33711 4.16681 8.00015 4.16681C8.66319 4.16681 9.29908 4.43021 9.76792 4.89905C10.2368 5.36789 10.5001 6.00377 10.5001 6.66681C10.5001 7.32985 10.2368 7.96574 9.76792 8.43458C9.29908 8.90342 8.66319 9.16681 8.00015 9.16681C7.33711 9.16681 6.70122 8.90342 6.23238 8.43458C5.76354 7.96574 5.50015 7.32985 5.50015 6.66681Z" fill="#78828A"/>
</svg>
