<svg width="280" height="204" viewBox="0 0 280 204" fill="none" xmlns="http://www.w3.org/2000/svg">
<g clip-path="url(#clip0_29324_5440)">
<path d="M184.107 69.6932C188.579 45.3301 172.454 21.9551 148.091 17.4837C123.728 13.0122 100.353 29.1376 95.8811 53.5006C91.4097 77.8636 107.535 101.239 131.898 105.71C156.261 110.182 179.636 94.0562 184.107 69.6932Z" fill="#5A7BC1"/>
<path d="M165.43 60.82C159.58 62.44 154.02 64.93 148.6 67.63C148.72 67.14 148.84 66.65 148.96 66.15C149.75 62.91 150.53 59.67 151.29 56.43C159.33 49.37 192.23 5.45 173.06 0.0499979C165.07 -0.810002 160.25 9.06 156.89 14.96C150.6 26.81 148.1 40.07 145.19 53.04C138 60.06 129.88 66.58 120.35 70.06C103.65 75.44 105.57 62.74 115.08 54.33C120.07 50.06 126.8 48.21 133.29 48.67C134.34 48.58 135.4 48.9 136.45 49.23C137.95 49.7 139.41 50.16 140.78 49.39C143.24 48.05 142.81 44.18 140.22 43.33C126.08 38.46 109.22 45.87 102.9 59.39C97.93 68.89 103.32 78.54 114.3 78.05C124.97 77.4 134.32 71.03 142.46 64.57C141.95 66.66 141.42 68.75 140.89 70.84C140.78 71.26 140.67 71.69 140.56 72.11C130.99 77.93 122.02 85.1 115.57 94.36C111.62 100.05 107.87 106.66 108.3 113.81C108.56 117.73 110.68 122.03 114.78 122.99C115.61 123.14 116.41 123.21 117.2 123.21C134.34 123.21 142.61 89.48 146.35 76.47C152.98 72.76 159.89 69.38 167.22 67.3C171.43 66.08 169.67 59.71 165.44 60.83L165.43 60.82ZM155.55 37.86C157.65 29.56 164.08 10.45 171.92 6.68C173.33 16.91 160.58 34.73 154.37 42.79C154.74 41.14 155.13 39.5 155.55 37.86ZM117.52 116.54C115.06 116.94 114.91 113.7 114.97 111.96C115.35 107.38 117.73 103.26 120.17 99.47C124.82 92.45 131.06 86.66 137.91 81.82C134.98 91.03 128.21 114.95 117.52 116.53V116.54Z" fill="white"/>
</g>
<path d="M39.4806 161.08V155.88H53.6406C53.774 158.12 53.5473 160.213 52.9606 162.16C52.374 164.107 51.4673 165.827 50.2406 167.32C49.014 168.813 47.4806 169.987 45.6406 170.84C43.8006 171.667 41.694 172.08 39.3206 172.08C37.0806 172.08 35.0273 171.733 33.1606 171.04C31.294 170.32 29.6806 169.307 28.3206 168C26.9606 166.667 25.894 165.093 25.1206 163.28C24.374 161.44 24.0006 159.413 24.0006 157.2C24.0006 154.987 24.3873 152.987 25.1606 151.2C25.934 149.387 27.0273 147.84 28.4406 146.56C29.854 145.28 31.5073 144.293 33.4006 143.6C35.294 142.907 37.3473 142.56 39.5606 142.56C41.534 142.56 43.3073 142.84 44.8806 143.4C46.454 143.96 47.8406 144.747 49.0406 145.76C50.2673 146.747 51.3206 147.893 52.2006 149.2L46.2006 152.32C45.5606 151.2 44.694 150.28 43.6006 149.56C42.534 148.813 41.1873 148.44 39.5606 148.44C37.9873 148.44 36.5606 148.787 35.2806 149.48C34.0006 150.173 32.974 151.173 32.2006 152.48C31.454 153.76 31.0806 155.333 31.0806 157.2C31.0806 159.04 31.4406 160.64 32.1606 162C32.9073 163.333 33.9073 164.373 35.1606 165.12C36.4406 165.84 37.9073 166.2 39.5606 166.2C40.574 166.2 41.494 166.08 42.3206 165.84C43.1473 165.573 43.854 165.213 44.4406 164.76C45.0273 164.28 45.5206 163.733 45.9206 163.12C46.3473 162.48 46.6806 161.8 46.9206 161.08H39.4806ZM63.7388 152.8V171.2H57.7788V152.8H63.7388ZM69.0588 159.04C68.7388 158.72 68.3921 158.467 68.0188 158.28C67.6721 158.093 67.2321 158 66.6988 158C66.1121 158 65.5921 158.16 65.1388 158.48C64.6854 158.8 64.3388 159.267 64.0988 159.88C63.8588 160.493 63.7388 161.24 63.7388 162.12L62.2988 160C62.2988 158.533 62.5788 157.227 63.1388 156.08C63.7254 154.933 64.4854 154.027 65.4188 153.36C66.3521 152.693 67.3254 152.36 68.3388 152.36C69.0054 152.36 69.6454 152.493 70.2588 152.76C70.8721 153.027 71.3388 153.4 71.6588 153.88L69.0588 159.04ZM79.1041 165.44C79.1041 165.92 79.2241 166.333 79.4641 166.68C79.7041 167 80.0241 167.253 80.4241 167.44C80.8241 167.6 81.2641 167.68 81.7441 167.68C82.4374 167.68 83.0774 167.533 83.6641 167.24C84.2507 166.947 84.7307 166.507 85.1041 165.92C85.4774 165.333 85.6641 164.613 85.6641 163.76L86.3041 166.16C86.3041 167.333 85.9841 168.333 85.3441 169.16C84.7041 169.96 83.8774 170.573 82.8641 171C81.8507 171.4 80.7574 171.6 79.5841 171.6C78.4107 171.6 77.3174 171.387 76.3041 170.96C75.3174 170.507 74.5174 169.84 73.9041 168.96C73.3174 168.08 73.0241 167.013 73.0241 165.76C73.0241 164 73.6507 162.613 74.9041 161.6C76.1574 160.56 77.9307 160.04 80.2241 160.04C81.3441 160.04 82.3441 160.147 83.2241 160.36C84.1307 160.573 84.9041 160.84 85.5441 161.16C86.1841 161.48 86.6641 161.813 86.9841 162.16V164.84C86.3441 164.36 85.5974 164 84.7441 163.76C83.9174 163.493 83.0374 163.36 82.1041 163.36C81.3841 163.36 80.8107 163.44 80.3841 163.6C79.9574 163.76 79.6374 164 79.4241 164.32C79.2107 164.613 79.1041 164.987 79.1041 165.44ZM76.4241 158.44L74.3841 154.4C75.4241 153.893 76.6774 153.413 78.1441 152.96C79.6107 152.507 81.2107 152.28 82.9441 152.28C84.5707 152.28 86.0241 152.52 87.3041 153C88.5841 153.453 89.5974 154.12 90.3441 155C91.0907 155.88 91.4641 156.96 91.4641 158.24V171.2H85.6641V159.6C85.6641 159.147 85.5841 158.76 85.4241 158.44C85.2907 158.093 85.0774 157.8 84.7841 157.56C84.4907 157.32 84.1174 157.147 83.6641 157.04C83.2374 156.933 82.7441 156.88 82.1841 156.88C81.3574 156.88 80.5441 156.973 79.7441 157.16C78.9707 157.347 78.2907 157.573 77.7041 157.84C77.1174 158.08 76.6907 158.28 76.4241 158.44ZM108.147 160C108.147 158.907 107.933 158.067 107.507 157.48C107.107 156.893 106.427 156.6 105.467 156.6C104.827 156.6 104.267 156.733 103.787 157C103.307 157.267 102.933 157.653 102.667 158.16C102.4 158.667 102.267 159.28 102.267 160V171.2H96.1866V152.8H102.267V155.56C102.8 154.547 103.52 153.76 104.427 153.2C105.36 152.64 106.507 152.36 107.867 152.36C110.16 152.36 111.827 152.973 112.867 154.2C113.907 155.427 114.427 157.147 114.427 159.36V171.2H108.147V160ZM133.354 140H139.394V171.2H133.354V140ZM118.314 162C118.314 159.92 118.728 158.173 119.554 156.76C120.408 155.347 121.501 154.267 122.834 153.52C124.168 152.773 125.581 152.4 127.074 152.4C128.621 152.4 129.981 152.787 131.154 153.56C132.354 154.333 133.301 155.44 133.994 156.88C134.688 158.293 135.034 160 135.034 162C135.034 163.973 134.688 165.68 133.994 167.12C133.301 168.56 132.354 169.667 131.154 170.44C129.981 171.213 128.621 171.6 127.074 171.6C125.581 171.6 124.168 171.227 122.834 170.48C121.501 169.733 120.408 168.653 119.554 167.24C118.728 165.8 118.314 164.053 118.314 162ZM124.674 162C124.674 162.96 124.874 163.8 125.274 164.52C125.674 165.213 126.208 165.76 126.874 166.16C127.541 166.533 128.274 166.72 129.074 166.72C129.768 166.72 130.434 166.533 131.074 166.16C131.741 165.787 132.288 165.253 132.714 164.56C133.141 163.84 133.354 162.987 133.354 162C133.354 161.013 133.141 160.173 132.714 159.48C132.288 158.76 131.741 158.213 131.074 157.84C130.434 157.467 129.768 157.28 129.074 157.28C128.274 157.28 127.541 157.48 126.874 157.88C126.208 158.253 125.674 158.8 125.274 159.52C124.874 160.213 124.674 161.04 124.674 162ZM158.954 159.48V153.4H180.114V159.48H158.954ZM175.874 143.2H182.634V171.2H175.874V143.2ZM157.074 143.2H163.834V171.2H157.074V143.2ZM187.039 162C187.039 160.053 187.493 158.36 188.399 156.92C189.306 155.48 190.559 154.36 192.159 153.56C193.759 152.76 195.559 152.36 197.559 152.36C199.559 152.36 201.346 152.76 202.919 153.56C204.519 154.36 205.773 155.48 206.679 156.92C207.613 158.36 208.079 160.053 208.079 162C208.079 163.92 207.613 165.6 206.679 167.04C205.773 168.48 204.519 169.6 202.919 170.4C201.346 171.2 199.559 171.6 197.559 171.6C195.559 171.6 193.759 171.2 192.159 170.4C190.559 169.6 189.306 168.48 188.399 167.04C187.493 165.6 187.039 163.92 187.039 162ZM193.239 162C193.239 162.96 193.439 163.787 193.839 164.48C194.239 165.147 194.759 165.667 195.399 166.04C196.039 166.413 196.759 166.6 197.559 166.6C198.333 166.6 199.039 166.413 199.679 166.04C200.346 165.667 200.866 165.147 201.239 164.48C201.639 163.787 201.839 162.96 201.839 162C201.839 161.04 201.639 160.213 201.239 159.52C200.866 158.827 200.346 158.293 199.679 157.92C199.039 157.547 198.333 157.36 197.559 157.36C196.759 157.36 196.039 157.547 195.399 157.92C194.759 158.293 194.239 158.827 193.839 159.52C193.439 160.213 193.239 161.04 193.239 162ZM209.714 152.8H222.034V157.8H209.714V152.8ZM212.954 146.4H218.754V171.2H212.954V146.4ZM234.168 171.6C232.035 171.6 230.182 171.213 228.608 170.44C227.062 169.64 225.862 168.52 225.008 167.08C224.155 165.64 223.728 163.947 223.728 162C223.728 160.027 224.142 158.32 224.968 156.88C225.795 155.44 226.982 154.333 228.528 153.56C230.102 152.787 231.955 152.4 234.088 152.4C236.222 152.4 238.022 152.773 239.488 153.52C240.955 154.24 242.075 155.293 242.848 156.68C243.622 158.067 244.008 159.747 244.008 161.72C244.008 162.013 244.008 162.307 244.008 162.6C244.008 162.867 243.982 163.093 243.928 163.28H227.128V159.92H238.488L237.048 161.76C237.182 161.573 237.288 161.347 237.368 161.08C237.475 160.787 237.528 160.547 237.528 160.36C237.528 159.56 237.382 158.867 237.088 158.28C236.795 157.693 236.382 157.24 235.848 156.92C235.315 156.6 234.688 156.44 233.968 156.44C233.062 156.44 232.302 156.64 231.688 157.04C231.075 157.44 230.608 158.053 230.288 158.88C229.995 159.68 229.835 160.693 229.808 161.92C229.808 163.04 229.968 164 230.288 164.8C230.608 165.6 231.088 166.213 231.728 166.64C232.368 167.04 233.155 167.24 234.088 167.24C235.155 167.24 236.062 167.04 236.808 166.64C237.582 166.24 238.195 165.64 238.648 164.84L244.048 166.16C243.088 167.973 241.782 169.333 240.128 170.24C238.502 171.147 236.515 171.6 234.168 171.6ZM247.938 140H254.018V171.2H247.938V140Z" fill="#FDFDFD"/>
<path d="M14.6309 188.52V187.4H19.0129V188.52H14.6309ZM14.6309 192.44V191.32H18.8729V192.44H14.6309ZM13.9729 187.4H15.1629V197.2H13.9729V187.4ZM20.9729 188.1C20.9729 187.885 21.0476 187.703 21.1969 187.554C21.3556 187.405 21.5376 187.33 21.7429 187.33C21.9576 187.33 22.1396 187.405 22.2889 187.554C22.4383 187.703 22.5129 187.885 22.5129 188.1C22.5129 188.305 22.4383 188.487 22.2889 188.646C22.1396 188.795 21.9576 188.87 21.7429 188.87C21.5376 188.87 21.3556 188.795 21.1969 188.646C21.0476 188.487 20.9729 188.305 20.9729 188.1ZM21.1829 190.76H22.3029V197.2H21.1829V190.76ZM28.8096 193.28C28.8096 192.748 28.693 192.347 28.4596 192.076C28.2263 191.805 27.8856 191.67 27.4376 191.67C27.111 191.67 26.8216 191.74 26.5696 191.88C26.327 192.011 26.1356 192.197 25.9956 192.44C25.865 192.683 25.7996 192.963 25.7996 193.28V197.2H24.6796V190.76H25.7996V191.768C26.0143 191.376 26.2803 191.087 26.5976 190.9C26.9243 190.713 27.2976 190.62 27.7176 190.62C28.399 190.62 28.9356 190.849 29.3276 191.306C29.729 191.754 29.9296 192.365 29.9296 193.14V197.2H28.8096V193.28ZM36.9351 186.28H38.0551V197.2H36.9351V186.28ZM31.5451 193.98C31.5451 193.28 31.6898 192.683 31.9791 192.188C32.2684 191.684 32.6558 191.297 33.1411 191.026C33.6264 190.755 34.1584 190.62 34.7371 190.62C35.2784 190.62 35.7498 190.755 36.1511 191.026C36.5524 191.297 36.8651 191.684 37.0891 192.188C37.3224 192.683 37.4391 193.28 37.4391 193.98C37.4391 194.671 37.3224 195.268 37.0891 195.772C36.8651 196.276 36.5524 196.663 36.1511 196.934C35.7498 197.205 35.2784 197.34 34.7371 197.34C34.1584 197.34 33.6264 197.205 33.1411 196.934C32.6558 196.663 32.2684 196.276 31.9791 195.772C31.6898 195.268 31.5451 194.671 31.5451 193.98ZM32.6791 193.98C32.6791 194.475 32.7771 194.895 32.9731 195.24C33.1784 195.585 33.4491 195.847 33.7851 196.024C34.1211 196.201 34.4851 196.29 34.8771 196.29C35.2038 196.29 35.5258 196.201 35.8431 196.024C36.1604 195.847 36.4218 195.585 36.6271 195.24C36.8324 194.895 36.9351 194.475 36.9351 193.98C36.9351 193.485 36.8324 193.065 36.6271 192.72C36.4218 192.375 36.1604 192.113 35.8431 191.936C35.5258 191.759 35.2038 191.67 34.8771 191.67C34.4851 191.67 34.1211 191.759 33.7851 191.936C33.4491 192.113 33.1784 192.375 32.9731 192.72C32.7771 193.065 32.6791 193.485 32.6791 193.98ZM49.8308 187.4H51.1608L47.8988 192.972V197.2H46.7088V192.986L43.4468 187.4H44.7768L47.2968 191.936L49.8308 187.4ZM50.3899 193.98C50.3899 193.327 50.5345 192.748 50.8239 192.244C51.1225 191.74 51.5239 191.343 52.0279 191.054C52.5319 190.765 53.0965 190.62 53.7219 190.62C54.3565 190.62 54.9212 190.765 55.4159 191.054C55.9199 191.343 56.3165 191.74 56.6059 192.244C56.9045 192.748 57.0539 193.327 57.0539 193.98C57.0539 194.624 56.9045 195.203 56.6059 195.716C56.3165 196.22 55.9199 196.617 55.4159 196.906C54.9212 197.195 54.3565 197.34 53.7219 197.34C53.0965 197.34 52.5319 197.195 52.0279 196.906C51.5239 196.617 51.1225 196.22 50.8239 195.716C50.5345 195.203 50.3899 194.624 50.3899 193.98ZM51.5239 193.98C51.5239 194.428 51.6172 194.825 51.8039 195.17C51.9999 195.515 52.2612 195.791 52.5879 195.996C52.9239 196.192 53.3019 196.29 53.7219 196.29C54.1419 196.29 54.5152 196.192 54.8419 195.996C55.1779 195.791 55.4392 195.515 55.6259 195.17C55.8219 194.825 55.9199 194.428 55.9199 193.98C55.9199 193.532 55.8219 193.135 55.6259 192.79C55.4392 192.435 55.1779 192.16 54.8419 191.964C54.5152 191.768 54.1419 191.67 53.7219 191.67C53.3019 191.67 52.9239 191.768 52.5879 191.964C52.2612 192.16 51.9999 192.435 51.8039 192.79C51.6172 193.135 51.5239 193.532 51.5239 193.98ZM59.7825 194.68C59.7825 195.193 59.8991 195.59 60.1325 195.87C60.3658 196.15 60.7065 196.29 61.1545 196.29C61.4811 196.29 61.7658 196.225 62.0085 196.094C62.2605 195.954 62.4518 195.763 62.5825 195.52C62.7225 195.277 62.7925 194.997 62.7925 194.68V190.76H63.9125V197.2H62.7925V196.192C62.5778 196.575 62.3118 196.864 61.9945 197.06C61.6771 197.247 61.3038 197.34 60.8745 197.34C60.2025 197.34 59.6658 197.111 59.2645 196.654C58.8631 196.197 58.6625 195.585 58.6625 194.82V190.76H59.7825V194.68ZM67.2079 190.76V197.2H66.0879V190.76H67.2079ZM69.1539 191.992C69.0046 191.88 68.8693 191.801 68.7479 191.754C68.6266 191.698 68.4726 191.67 68.2859 191.67C68.0059 191.67 67.7866 191.74 67.6279 191.88C67.4693 192.02 67.3573 192.211 67.2919 192.454C67.2359 192.697 67.2079 192.972 67.2079 193.28H66.7039C66.7039 192.767 66.7926 192.314 66.9699 191.922C67.1566 191.521 67.3946 191.203 67.6839 190.97C67.9733 190.737 68.2673 190.62 68.5659 190.62C68.7993 190.62 69.0139 190.653 69.2099 190.718C69.4153 190.774 69.6019 190.891 69.7699 191.068L69.1539 191.992ZM75.294 187.4H76.484V197.2H75.294V187.4ZM75.952 188.52V187.4H77.954C78.5887 187.4 79.1534 187.521 79.648 187.764C80.152 187.997 80.5487 188.333 80.838 188.772C81.1367 189.211 81.286 189.733 81.286 190.34C81.286 190.937 81.1367 191.46 80.838 191.908C80.5487 192.347 80.152 192.687 79.648 192.93C79.1534 193.163 78.5887 193.28 77.954 193.28H75.952V192.16H77.954C78.5887 192.16 79.102 192.006 79.494 191.698C79.8954 191.39 80.096 190.937 80.096 190.34C80.096 189.733 79.8954 189.281 79.494 188.982C79.102 188.674 78.5887 188.52 77.954 188.52H75.952ZM85.0321 197.34C84.4348 197.34 83.9028 197.2 83.4361 196.92C82.9788 196.631 82.6194 196.234 82.3581 195.73C82.1061 195.226 81.9801 194.643 81.9801 193.98C81.9801 193.308 82.1108 192.72 82.3721 192.216C82.6428 191.712 83.0161 191.32 83.4921 191.04C83.9774 190.76 84.5374 190.62 85.1721 190.62C85.8068 190.62 86.3481 190.755 86.7961 191.026C87.2534 191.287 87.6034 191.665 87.8461 192.16C88.0888 192.655 88.2101 193.243 88.2101 193.924C88.2101 193.989 88.2054 194.059 88.1961 194.134C88.1961 194.199 88.1961 194.241 88.1961 194.26H82.6941V193.308H87.3141L86.8661 193.952C86.8941 193.905 86.9221 193.835 86.9501 193.742C86.9781 193.639 86.9921 193.555 86.9921 193.49C86.9921 193.107 86.9128 192.776 86.7541 192.496C86.6048 192.216 86.3948 191.997 86.1241 191.838C85.8534 191.679 85.5361 191.6 85.1721 191.6C84.7428 191.6 84.3741 191.693 84.0661 191.88C83.7674 192.057 83.5341 192.319 83.3661 192.664C83.2074 193 83.1234 193.415 83.1141 193.91C83.1141 194.414 83.1934 194.843 83.3521 195.198C83.5108 195.553 83.7441 195.823 84.0521 196.01C84.3601 196.197 84.7334 196.29 85.1721 196.29C85.6108 196.29 85.9981 196.197 86.3341 196.01C86.6701 195.814 86.9548 195.52 87.1881 195.128L88.0981 195.702C87.7621 196.243 87.3374 196.654 86.8241 196.934C86.3201 197.205 85.7228 197.34 85.0321 197.34ZM90.9352 190.76V197.2H89.8152V190.76H90.9352ZM92.8812 191.992C92.7319 191.88 92.5965 191.801 92.4752 191.754C92.3539 191.698 92.1999 191.67 92.0132 191.67C91.7332 191.67 91.5139 191.74 91.3552 191.88C91.1965 192.02 91.0845 192.211 91.0192 192.454C90.9632 192.697 90.9352 192.972 90.9352 193.28H90.4312C90.4312 192.767 90.5199 192.314 90.6972 191.922C90.8839 191.521 91.1219 191.203 91.4112 190.97C91.7005 190.737 91.9945 190.62 92.2932 190.62C92.5265 190.62 92.7412 190.653 92.9372 190.718C93.1425 190.774 93.3292 190.891 93.4972 191.068L92.8812 191.992ZM94.194 190.76H97.414V191.81H94.194V190.76ZM97.302 187.624C97.2087 187.465 97.0967 187.367 96.966 187.33C96.8447 187.283 96.728 187.26 96.616 187.26C96.476 187.26 96.3547 187.302 96.252 187.386C96.1587 187.461 96.084 187.591 96.028 187.778C95.972 187.965 95.944 188.212 95.944 188.52V197.2H94.824V188.38C94.824 187.867 94.8987 187.447 95.048 187.12C95.1974 186.793 95.4074 186.551 95.678 186.392C95.958 186.224 96.294 186.14 96.686 186.14C96.8914 186.14 97.0734 186.168 97.232 186.224C97.3907 186.28 97.526 186.35 97.638 186.434C97.7594 186.518 97.8527 186.607 97.918 186.7L97.302 187.624ZM101.252 197.34C100.655 197.34 100.123 197.2 99.6559 196.92C99.1986 196.631 98.8392 196.234 98.5779 195.73C98.3259 195.226 98.1999 194.643 98.1999 193.98C98.1999 193.308 98.3306 192.72 98.5919 192.216C98.8626 191.712 99.2359 191.32 99.7119 191.04C100.197 190.76 100.757 190.62 101.392 190.62C102.027 190.62 102.568 190.755 103.016 191.026C103.473 191.287 103.823 191.665 104.066 192.16C104.309 192.655 104.43 193.243 104.43 193.924C104.43 193.989 104.425 194.059 104.416 194.134C104.416 194.199 104.416 194.241 104.416 194.26H98.9139V193.308H103.534L103.086 193.952C103.114 193.905 103.142 193.835 103.17 193.742C103.198 193.639 103.212 193.555 103.212 193.49C103.212 193.107 103.133 192.776 102.974 192.496C102.825 192.216 102.615 191.997 102.344 191.838C102.073 191.679 101.756 191.6 101.392 191.6C100.963 191.6 100.594 191.693 100.286 191.88C99.9872 192.057 99.7539 192.319 99.5859 192.664C99.4272 193 99.3432 193.415 99.3339 193.91C99.3339 194.414 99.4132 194.843 99.5719 195.198C99.7306 195.553 99.9639 195.823 100.272 196.01C100.58 196.197 100.953 196.29 101.392 196.29C101.831 196.29 102.218 196.197 102.554 196.01C102.89 195.814 103.175 195.52 103.408 195.128L104.318 195.702C103.982 196.243 103.557 196.654 103.044 196.934C102.54 197.205 101.943 197.34 101.252 197.34ZM106.539 193.98C106.539 194.428 106.632 194.825 106.819 195.17C107.015 195.515 107.276 195.791 107.603 195.996C107.939 196.192 108.317 196.29 108.737 196.29C109.082 196.29 109.404 196.239 109.703 196.136C110.011 196.024 110.277 195.879 110.501 195.702C110.725 195.515 110.884 195.319 110.977 195.114V196.514C110.753 196.775 110.431 196.981 110.011 197.13C109.6 197.27 109.176 197.34 108.737 197.34C108.112 197.34 107.547 197.195 107.043 196.906C106.539 196.617 106.138 196.22 105.839 195.716C105.55 195.203 105.405 194.624 105.405 193.98C105.405 193.327 105.55 192.748 105.839 192.244C106.138 191.74 106.539 191.343 107.043 191.054C107.547 190.765 108.112 190.62 108.737 190.62C109.176 190.62 109.6 190.695 110.011 190.844C110.431 190.984 110.753 191.185 110.977 191.446V192.846C110.884 192.631 110.725 192.435 110.501 192.258C110.277 192.081 110.011 191.941 109.703 191.838C109.404 191.726 109.082 191.67 108.737 191.67C108.317 191.67 107.939 191.768 107.603 191.964C107.276 192.16 107.015 192.435 106.819 192.79C106.632 193.135 106.539 193.532 106.539 193.98ZM111.811 190.76H115.031V191.81H111.811V190.76ZM112.861 188.52H113.981V197.2H112.861V188.52ZM120.925 194.232C121.149 194.624 121.382 194.969 121.625 195.268C121.877 195.567 122.157 195.8 122.465 195.968C122.773 196.136 123.123 196.22 123.515 196.22C124.038 196.22 124.458 196.075 124.775 195.786C125.092 195.497 125.251 195.128 125.251 194.68C125.251 194.241 125.148 193.891 124.943 193.63C124.738 193.369 124.467 193.159 124.131 193C123.804 192.832 123.454 192.683 123.081 192.552C122.838 192.468 122.568 192.361 122.269 192.23C121.97 192.09 121.686 191.917 121.415 191.712C121.144 191.497 120.92 191.236 120.743 190.928C120.575 190.62 120.491 190.242 120.491 189.794C120.491 189.309 120.612 188.875 120.855 188.492C121.098 188.109 121.434 187.811 121.863 187.596C122.292 187.372 122.782 187.26 123.333 187.26C123.865 187.26 124.327 187.363 124.719 187.568C125.12 187.764 125.461 188.021 125.741 188.338C126.021 188.646 126.24 188.973 126.399 189.318L125.377 189.906C125.256 189.663 125.102 189.425 124.915 189.192C124.728 188.959 124.5 188.767 124.229 188.618C123.968 188.469 123.646 188.394 123.263 188.394C122.731 188.394 122.344 188.525 122.101 188.786C121.858 189.038 121.737 189.323 121.737 189.64C121.737 189.911 121.807 190.163 121.947 190.396C122.087 190.62 122.32 190.835 122.647 191.04C122.983 191.236 123.436 191.432 124.005 191.628C124.266 191.721 124.542 191.843 124.831 191.992C125.12 192.141 125.386 192.333 125.629 192.566C125.881 192.79 126.086 193.065 126.245 193.392C126.404 193.709 126.483 194.092 126.483 194.54C126.483 194.969 126.399 195.357 126.231 195.702C126.072 196.047 125.848 196.341 125.559 196.584C125.279 196.827 124.957 197.013 124.593 197.144C124.238 197.275 123.865 197.34 123.473 197.34C122.941 197.34 122.446 197.228 121.989 197.004C121.541 196.771 121.144 196.467 120.799 196.094C120.463 195.711 120.188 195.305 119.973 194.876L120.925 194.232ZM127.251 190.76H130.471V191.81H127.251V190.76ZM128.301 188.52H129.421V197.2H128.301V188.52ZM132.168 195.212C132.168 195.455 132.224 195.665 132.336 195.842C132.458 196.019 132.621 196.155 132.826 196.248C133.041 196.332 133.284 196.374 133.554 196.374C133.9 196.374 134.208 196.304 134.478 196.164C134.758 196.024 134.978 195.828 135.136 195.576C135.304 195.315 135.388 195.016 135.388 194.68L135.612 195.52C135.612 195.931 135.486 196.271 135.234 196.542C134.992 196.813 134.688 197.013 134.324 197.144C133.97 197.275 133.615 197.34 133.26 197.34C132.868 197.34 132.5 197.261 132.154 197.102C131.818 196.934 131.548 196.696 131.342 196.388C131.137 196.08 131.034 195.707 131.034 195.268C131.034 194.643 131.254 194.143 131.692 193.77C132.14 193.387 132.761 193.196 133.554 193.196C134.021 193.196 134.408 193.252 134.716 193.364C135.034 193.467 135.286 193.588 135.472 193.728C135.659 193.859 135.785 193.966 135.85 194.05V194.708C135.524 194.484 135.188 194.325 134.842 194.232C134.497 194.129 134.128 194.078 133.736 194.078C133.372 194.078 133.074 194.125 132.84 194.218C132.616 194.311 132.448 194.442 132.336 194.61C132.224 194.778 132.168 194.979 132.168 195.212ZM132 192.244L131.454 191.418C131.697 191.241 132.028 191.063 132.448 190.886C132.878 190.709 133.391 190.62 133.988 190.62C134.492 190.62 134.931 190.699 135.304 190.858C135.687 191.007 135.981 191.227 136.186 191.516C136.401 191.805 136.508 192.16 136.508 192.58V197.2H135.388V192.734C135.388 192.51 135.351 192.328 135.276 192.188C135.202 192.039 135.094 191.922 134.954 191.838C134.824 191.754 134.67 191.693 134.492 191.656C134.315 191.619 134.128 191.6 133.932 191.6C133.615 191.6 133.326 191.637 133.064 191.712C132.812 191.787 132.598 191.875 132.42 191.978C132.243 192.081 132.103 192.169 132 192.244ZM143.516 190.76L139.316 200.28H138.056L139.82 196.29L137.356 190.76H138.686L140.73 195.8L140.268 195.744L142.256 190.76H143.516ZM144.83 195.66L145.95 196.08L144.41 199.58L143.598 199.286L144.83 195.66ZM153.46 194.26L153.88 193.14H158.22L158.64 194.26H153.46ZM156.022 189.612L154.37 193.504L154.258 193.756L152.802 197.2H151.472L156.022 186.91L160.572 197.2H159.242L157.814 193.84L157.702 193.56L156.022 189.612ZM165.894 193.28C165.894 192.748 165.778 192.347 165.544 192.076C165.311 191.805 164.97 191.67 164.522 191.67C164.196 191.67 163.906 191.74 163.654 191.88C163.412 192.011 163.22 192.197 163.08 192.44C162.95 192.683 162.884 192.963 162.884 193.28V197.2H161.764V190.76H162.884V191.768C163.099 191.376 163.365 191.087 163.682 190.9C164.009 190.713 164.382 190.62 164.802 190.62C165.484 190.62 166.02 190.849 166.412 191.306C166.814 191.754 167.014 192.365 167.014 193.14V197.2H165.894V193.28ZM174.231 190.76L170.031 200.28H168.771L170.535 196.29L168.071 190.76H169.401L171.445 195.8L170.983 195.744L172.971 190.76H174.231ZM174.377 190.76H177.597V191.81H174.377V190.76ZM175.427 188.52H176.547V197.2H175.427V188.52ZM178.791 188.1C178.791 187.885 178.865 187.703 179.015 187.554C179.173 187.405 179.355 187.33 179.561 187.33C179.775 187.33 179.957 187.405 180.107 187.554C180.256 187.703 180.331 187.885 180.331 188.1C180.331 188.305 180.256 188.487 180.107 188.646C179.957 188.795 179.775 188.87 179.561 188.87C179.355 188.87 179.173 188.795 179.015 188.646C178.865 188.487 178.791 188.305 178.791 188.1ZM179.001 190.76H180.121V197.2H179.001V190.76ZM191.317 193.14V197.2H190.197V193.28C190.197 192.729 190.095 192.323 189.889 192.062C189.693 191.801 189.385 191.67 188.965 191.67C188.657 191.67 188.391 191.735 188.167 191.866C187.943 191.987 187.771 192.169 187.649 192.412C187.528 192.655 187.467 192.944 187.467 193.28V197.2H186.347V193.28C186.347 192.729 186.245 192.323 186.039 192.062C185.843 191.801 185.535 191.67 185.115 191.67C184.807 191.67 184.541 191.735 184.317 191.866C184.093 191.987 183.921 192.169 183.799 192.412C183.678 192.655 183.617 192.944 183.617 193.28V197.2H182.497V190.76H183.617V191.698C183.813 191.334 184.056 191.063 184.345 190.886C184.644 190.709 184.994 190.62 185.395 190.62C185.843 190.62 186.226 190.727 186.543 190.942C186.87 191.147 187.108 191.441 187.257 191.824C187.481 191.423 187.761 191.124 188.097 190.928C188.433 190.723 188.816 190.62 189.245 190.62C189.684 190.62 190.057 190.718 190.365 190.914C190.673 191.11 190.907 191.399 191.065 191.782C191.233 192.155 191.317 192.608 191.317 193.14ZM195.983 197.34C195.386 197.34 194.854 197.2 194.387 196.92C193.93 196.631 193.571 196.234 193.309 195.73C193.057 195.226 192.931 194.643 192.931 193.98C192.931 193.308 193.062 192.72 193.323 192.216C193.594 191.712 193.967 191.32 194.443 191.04C194.929 190.76 195.489 190.62 196.123 190.62C196.758 190.62 197.299 190.755 197.747 191.026C198.205 191.287 198.555 191.665 198.797 192.16C199.04 192.655 199.161 193.243 199.161 193.924C199.161 193.989 199.157 194.059 199.147 194.134C199.147 194.199 199.147 194.241 199.147 194.26H193.645V193.308H198.265L197.817 193.952C197.845 193.905 197.873 193.835 197.901 193.742C197.929 193.639 197.943 193.555 197.943 193.49C197.943 193.107 197.864 192.776 197.705 192.496C197.556 192.216 197.346 191.997 197.075 191.838C196.805 191.679 196.487 191.6 196.123 191.6C195.694 191.6 195.325 191.693 195.017 191.88C194.719 192.057 194.485 192.319 194.317 192.664C194.159 193 194.075 193.415 194.065 193.91C194.065 194.414 194.145 194.843 194.303 195.198C194.462 195.553 194.695 195.823 195.003 196.01C195.311 196.197 195.685 196.29 196.123 196.29C196.562 196.29 196.949 196.197 197.285 196.01C197.621 195.814 197.906 195.52 198.139 195.128L199.049 195.702C198.713 196.243 198.289 196.654 197.775 196.934C197.271 197.205 196.674 197.34 195.983 197.34ZM201.091 195.66L202.211 196.08L200.671 199.58L199.859 199.286L201.091 195.66ZM209.721 194.26L210.141 193.14H214.481L214.901 194.26H209.721ZM212.283 189.612L210.631 193.504L210.519 193.756L209.063 197.2H207.733L212.283 186.91L216.833 197.2H215.503L214.075 193.84L213.963 193.56L212.283 189.612ZM222.155 193.28C222.155 192.748 222.038 192.347 221.805 192.076C221.572 191.805 221.231 191.67 220.783 191.67C220.456 191.67 220.167 191.74 219.915 191.88C219.672 192.011 219.481 192.197 219.341 192.44C219.21 192.683 219.145 192.963 219.145 193.28V197.2H218.025V190.76H219.145V191.768C219.36 191.376 219.626 191.087 219.943 190.9C220.27 190.713 220.643 190.62 221.063 190.62C221.744 190.62 222.281 190.849 222.673 191.306C223.074 191.754 223.275 192.365 223.275 193.14V197.2H222.155V193.28ZM230.492 190.76L226.292 200.28H225.032L226.796 196.29L224.332 190.76H225.662L227.706 195.8L227.244 195.744L229.232 190.76H230.492ZM231.062 190.76H232.322L233.932 194.946L235.682 190.27L237.558 194.974L239.182 190.76H240.442L237.642 197.69L235.696 193L233.862 197.69L231.062 190.76ZM242.748 186.28V197.2H241.628V186.28H242.748ZM245.758 193.28C245.758 192.748 245.641 192.347 245.408 192.076C245.184 191.805 244.843 191.67 244.386 191.67C244.059 191.67 243.77 191.74 243.518 191.88C243.275 192.02 243.084 192.211 242.944 192.454C242.813 192.697 242.748 192.972 242.748 193.28H242.384C242.384 192.767 242.482 192.314 242.678 191.922C242.874 191.521 243.14 191.203 243.476 190.97C243.821 190.737 244.218 190.62 244.666 190.62C245.114 190.62 245.501 190.713 245.828 190.9C246.164 191.087 246.42 191.367 246.598 191.74C246.784 192.113 246.878 192.58 246.878 193.14V197.2H245.758V193.28ZM251.545 197.34C250.948 197.34 250.416 197.2 249.949 196.92C249.492 196.631 249.133 196.234 248.871 195.73C248.619 195.226 248.493 194.643 248.493 193.98C248.493 193.308 248.624 192.72 248.885 192.216C249.156 191.712 249.529 191.32 250.005 191.04C250.491 190.76 251.051 190.62 251.685 190.62C252.32 190.62 252.861 190.755 253.309 191.026C253.767 191.287 254.117 191.665 254.359 192.16C254.602 192.655 254.723 193.243 254.723 193.924C254.723 193.989 254.719 194.059 254.709 194.134C254.709 194.199 254.709 194.241 254.709 194.26H249.207V193.308H253.827L253.379 193.952C253.407 193.905 253.435 193.835 253.463 193.742C253.491 193.639 253.505 193.555 253.505 193.49C253.505 193.107 253.426 192.776 253.267 192.496C253.118 192.216 252.908 191.997 252.637 191.838C252.367 191.679 252.049 191.6 251.685 191.6C251.256 191.6 250.887 191.693 250.579 191.88C250.281 192.057 250.047 192.319 249.879 192.664C249.721 193 249.637 193.415 249.627 193.91C249.627 194.414 249.707 194.843 249.865 195.198C250.024 195.553 250.257 195.823 250.565 196.01C250.873 196.197 251.247 196.29 251.685 196.29C252.124 196.29 252.511 196.197 252.847 196.01C253.183 195.814 253.468 195.52 253.701 195.128L254.611 195.702C254.275 196.243 253.851 196.654 253.337 196.934C252.833 197.205 252.236 197.34 251.545 197.34ZM257.448 190.76V197.2H256.328V190.76H257.448ZM259.394 191.992C259.245 191.88 259.11 191.801 258.988 191.754C258.867 191.698 258.713 191.67 258.526 191.67C258.246 191.67 258.027 191.74 257.868 191.88C257.71 192.02 257.598 192.211 257.532 192.454C257.476 192.697 257.448 192.972 257.448 193.28H256.944C256.944 192.767 257.033 192.314 257.21 191.922C257.397 191.521 257.635 191.203 257.924 190.97C258.214 190.737 258.508 190.62 258.806 190.62C259.04 190.62 259.254 190.653 259.45 190.718C259.656 190.774 259.842 190.891 260.01 191.068L259.394 191.992ZM263.484 197.34C262.887 197.34 262.355 197.2 261.888 196.92C261.431 196.631 261.071 196.234 260.81 195.73C260.558 195.226 260.432 194.643 260.432 193.98C260.432 193.308 260.563 192.72 260.824 192.216C261.095 191.712 261.468 191.32 261.944 191.04C262.429 190.76 262.989 190.62 263.624 190.62C264.259 190.62 264.8 190.755 265.248 191.026C265.705 191.287 266.055 191.665 266.298 192.16C266.541 192.655 266.662 193.243 266.662 193.924C266.662 193.989 266.657 194.059 266.648 194.134C266.648 194.199 266.648 194.241 266.648 194.26H261.146V193.308H265.766L265.318 193.952C265.346 193.905 265.374 193.835 265.402 193.742C265.43 193.639 265.444 193.555 265.444 193.49C265.444 193.107 265.365 192.776 265.206 192.496C265.057 192.216 264.847 191.997 264.576 191.838C264.305 191.679 263.988 191.6 263.624 191.6C263.195 191.6 262.826 191.693 262.518 191.88C262.219 192.057 261.986 192.319 261.818 192.664C261.659 193 261.575 193.415 261.566 193.91C261.566 194.414 261.645 194.843 261.804 195.198C261.963 195.553 262.196 195.823 262.504 196.01C262.812 196.197 263.185 196.29 263.624 196.29C264.063 196.29 264.45 196.197 264.786 196.01C265.122 195.814 265.407 195.52 265.64 195.128L266.55 195.702C266.214 196.243 265.789 196.654 265.276 196.934C264.772 197.205 264.175 197.34 263.484 197.34Z" fill="white"/>
<defs>
<clipPath id="clip0_29324_5440">
<rect width="89.7" height="123.2" fill="white" transform="translate(95.15)"/>
</clipPath>
</defs>
</svg>
