<svg width="56" height="56" viewBox="0 0 56 56" fill="none" xmlns="http://www.w3.org/2000/svg">
<circle cx="28" cy="28" r="28" fill="#E8F2FF"/>
<path d="M28.5 38.75H20.08C18.51 38.75 17.22 37.49 17.22 35.93V21.09C17.22 19.56 17.79 18.37 18.83 17.72C19.88 17.06 21.24 17.08 22.65 17.78L27.09 19.96C28.3 20.56 29.25 22.07 29.25 23.41V38C29.25 38.41 28.91 38.75 28.5 38.75ZM20.56 18.75C20.21 18.75 19.89 18.83 19.62 19C19.04 19.36 18.72 20.11 18.72 21.09V35.93C18.72 36.66 19.33 37.25 20.08 37.25H27.75V23.41C27.75 22.64 27.13 21.65 26.42 21.31L21.98 19.13C21.47 18.88 20.99 18.75 20.56 18.75Z" fill="#171725"/>
<path d="M34.81 38.75H28.5C28.09 38.75 27.75 38.41 27.75 38V26.42C27.75 26.19 27.85 25.98 28.03 25.84C28.21 25.7 28.43 25.64 28.66 25.69L29.13 25.79L35.67 27.25C37.66 27.69 38.66 28.86 38.72 30.85C38.73 30.85 38.73 30.95 38.73 31.06V34.84C38.72 37.4 37.37 38.75 34.81 38.75ZM29.25 37.25H34.81C36.57 37.25 37.22 36.6 37.22 34.84V30.98C37.17 29.61 36.65 29 35.34 28.71L29.25 27.35V37.25Z" fill="#171725"/>
<path d="M24.97 25.75H21.5C21.09 25.75 20.75 25.41 20.75 25C20.75 24.59 21.09 24.25 21.5 24.25H24.97C25.38 24.25 25.72 24.59 25.72 25C25.72 25.41 25.39 25.75 24.97 25.75Z" fill="#171725"/>
<path d="M24.97 29.75H21.5C21.09 29.75 20.75 29.41 20.75 29C20.75 28.59 21.09 28.25 21.5 28.25H24.97C25.38 28.25 25.72 28.59 25.72 29C25.72 29.41 25.39 29.75 24.97 29.75Z" fill="#171725"/>
<path d="M31.22 33.75C29.57 33.75 28.22 32.4 28.22 30.75V26.52C28.22 26.29 28.32 26.08 28.5 25.93C28.68 25.78 28.91 25.73 29.13 25.78L33.63 26.79C33.97 26.87 34.22 27.17 34.22 27.52V30.74C34.22 32.4 32.88 33.75 31.22 33.75ZM29.72 27.46V30.75C29.72 31.58 30.39 32.25 31.22 32.25C32.05 32.25 32.72 31.58 32.72 30.75V28.13L29.72 27.46Z" fill="#171725"/>
<path d="M35.72 33.75C34.07 33.75 32.72 32.4 32.72 30.75V27.53C32.72 27.3 32.82 27.09 33 26.95C33.18 26.81 33.41 26.75 33.63 26.8L35.66 27.25C37.65 27.69 38.65 28.86 38.71 30.85C38.71 30.87 38.71 30.89 38.71 30.91C38.63 32.5 37.32 33.75 35.72 33.75ZM34.22 28.46V30.75C34.22 31.58 34.89 32.25 35.72 32.25C36.51 32.25 37.16 31.64 37.21 30.86C37.16 29.6 36.64 29 35.34 28.71L34.22 28.46Z" fill="#171725"/>
</svg>
