<svg width="56" height="56" viewBox="0 0 56 56" fill="none" xmlns="http://www.w3.org/2000/svg">
<circle cx="28" cy="28" r="28" fill="#E8F2FF"/>
<path d="M37.9999 29.85C37.8699 29.85 37.7399 29.82 37.6199 29.74L35.1199 28.24C33.8199 27.46 32.1999 27.46 30.8899 28.24C29.1099 29.31 26.8999 29.31 25.1199 28.24C23.8199 27.46 22.1999 27.46 20.8899 28.24L18.3899 29.74C18.0299 29.95 17.5699 29.84 17.3599 29.48C17.1499 29.12 17.2599 28.66 17.6199 28.45L20.1199 26.95C21.8999 25.88 24.1099 25.88 25.8899 26.95C27.1899 27.73 28.8099 27.73 30.1199 26.95C31.8999 25.88 34.1099 25.88 35.8899 26.95L38.3899 28.45C38.7499 28.66 38.8599 29.12 38.6499 29.48C38.4999 29.72 38.2499 29.85 37.9999 29.85Z" fill="#171725"/>
<path d="M23.0001 22.85C22.0001 22.85 21.0001 22.58 20.1101 22.05L17.6101 20.55C17.2501 20.34 17.1401 19.88 17.3501 19.52C17.5601 19.17 18.0201 19.05 18.3801 19.26L20.8801 20.76C22.1801 21.54 23.8001 21.54 25.1101 20.76C26.8901 19.69 29.1001 19.69 30.8801 20.76C32.1801 21.54 33.8001 21.54 35.1101 20.76L37.6101 19.26C37.9701 19.05 38.4301 19.16 38.6401 19.52C38.8501 19.87 38.7401 20.34 38.3801 20.55L35.8801 22.05C34.1001 23.12 31.8901 23.12 30.1101 22.05C28.8101 21.27 27.1901 21.27 25.8801 22.05C25.0001 22.58 24.0001 22.85 23.0001 22.85Z" fill="#171725"/>
<path d="M37.9999 36.85C37.8699 36.85 37.7399 36.82 37.6199 36.74L35.1199 35.24C33.8199 34.46 32.1999 34.46 30.8899 35.24C29.1099 36.31 26.8999 36.31 25.1199 35.24C23.8199 34.46 22.1999 34.46 20.8899 35.24L18.3899 36.74C18.0299 36.95 17.5699 36.84 17.3599 36.48C17.1499 36.12 17.2599 35.66 17.6199 35.45L20.1199 33.95C21.8999 32.88 24.1099 32.88 25.8899 33.95C27.1899 34.73 28.8099 34.73 30.1199 33.95C31.8999 32.88 34.1099 32.88 35.8899 33.95L38.3899 35.45C38.7499 35.66 38.8599 36.12 38.6499 36.48C38.4999 36.72 38.2499 36.85 37.9999 36.85Z" fill="#171725"/>
</svg>
