<svg width="28" height="28" viewBox="0 0 28 28" fill="none" xmlns="http://www.w3.org/2000/svg">
<rect width="28" height="28" rx="14" fill="#F5F5F5"/>
<path d="M20.5 12.4525V20.5H16.75V11.75L20.5 12.4525Z" fill="#FAB400"/>
<path d="M20.5 12.4525V12.9575L16.75 12.2525V11.75L20.5 12.4525Z" fill="#DC9600"/>
<path d="M20.7502 12.75C20.735 12.75 20.7195 12.7485 20.704 12.7455L16.704 11.9955C16.5683 11.97 16.479 11.8395 16.5042 11.7038C16.5297 11.5683 16.6607 11.4785 16.796 11.5043L20.796 12.2543C20.9317 12.2798 21.021 12.4103 20.9957 12.546C20.9732 12.6663 20.8682 12.75 20.7502 12.75Z" fill="#0A5078"/>
<path d="M7.25 21H20.75C20.888 21 21 20.888 21 20.75C21 20.612 20.888 20.5 20.75 20.5H7.25C7.112 20.5 7 20.612 7 20.75C7 20.888 7.112 21 7.25 21Z" fill="#0A5078"/>
<path d="M19.5 19H17.75C17.612 19 17.5 18.888 17.5 18.75V17.75C17.5 17.612 17.612 17.5 17.75 17.5H19.5C19.638 17.5 19.75 17.612 19.75 17.75V18.75C19.75 18.888 19.638 19 19.5 19Z" fill="#DC9600"/>
<path d="M19.5 15.125H17.75C17.612 15.125 17.5 15.013 17.5 14.875V13.875C17.5 13.737 17.612 13.625 17.75 13.625H19.5C19.638 13.625 19.75 13.737 19.75 13.875V14.875C19.75 15.013 19.638 15.125 19.5 15.125Z" fill="#DC9600"/>
<path d="M19.5 14.875H17.75C17.612 14.875 17.5 14.763 17.5 14.625V13.625C17.5 13.487 17.612 13.375 17.75 13.375H19.5C19.638 13.375 19.75 13.487 19.75 13.625V14.625C19.75 14.763 19.638 14.875 19.5 14.875Z" fill="#F0F0F0"/>
<path d="M19.5 13.625V14.625H17.75V13.625H19.5Z" fill="#00A0C8"/>
<path d="M16.625 16.25H20.5V16.75H16.625V16.25Z" fill="#DC9600"/>
<path d="M20.75 16.5H16.5C16.362 16.5 16.25 16.3882 16.25 16.25C16.25 16.1118 16.362 16 16.5 16H20.75C20.888 16 21 16.1118 21 16.25C21 16.3882 20.888 16.5 20.75 16.5Z" fill="#0A5078"/>
<path d="M19.5 18.75H17.75C17.612 18.75 17.5 18.638 17.5 18.5V17.5C17.5 17.362 17.612 17.25 17.75 17.25H19.5C19.638 17.25 19.75 17.362 19.75 17.5V18.5C19.75 18.638 19.638 18.75 19.5 18.75Z" fill="#F0F0F0"/>
<path d="M19.5 17.5V18.5H17.75V17.5H19.5Z" fill="#00A0C8"/>
<path d="M19.875 19.75V20.5H17.375V19.75C17.375 19.6125 17.4875 19.5 17.625 19.5C17.7625 19.5 17.875 19.6125 17.875 19.75V19.5C17.875 19.3625 17.9875 19.25 18.125 19.25C18.2625 19.25 18.375 19.3625 18.375 19.5V19.75C18.375 19.6125 18.4875 19.5 18.625 19.5C18.7625 19.5 18.875 19.6125 18.875 19.75V19.5C18.875 19.3625 18.9875 19.25 19.125 19.25C19.2625 19.25 19.375 19.3625 19.375 19.5V19.75C19.375 19.6125 19.4875 19.5 19.625 19.5C19.7625 19.5 19.875 19.6125 19.875 19.75Z" fill="#00A0C8"/>
<path d="M17.75 20.25C17.819 20.25 17.875 20.194 17.875 20.125C17.875 20.056 17.819 20 17.75 20C17.681 20 17.625 20.056 17.625 20.125C17.625 20.194 17.681 20.25 17.75 20.25Z" fill="#C80A50"/>
<path d="M19.125 20C19.194 20 19.25 19.944 19.25 19.875C19.25 19.806 19.194 19.75 19.125 19.75C19.056 19.75 19 19.806 19 19.875C19 19.944 19.056 20 19.125 20Z" fill="#C80A50"/>
<path d="M18.75 20.25C18.819 20.25 18.875 20.194 18.875 20.125C18.875 20.056 18.819 20 18.75 20C18.681 20 18.625 20.056 18.625 20.125C18.625 20.194 18.681 20.25 18.75 20.25Z" fill="#C80A50"/>
<path d="M7.5 15.75H11.375V20.5H7.5V15.75Z" fill="#FAB400"/>
<path d="M7.5 15.75H11.375V16.25H7.5V15.75Z" fill="#DC9600"/>
<path d="M11.125 16H7.25C7.112 16 7 15.888 7 15.75C7 15.612 7.112 15.5 7.25 15.5H11.125C11.263 15.5 11.375 15.612 11.375 15.75C11.375 15.888 11.263 16 11.125 16Z" fill="#0A5078"/>
<path d="M7.625 13.75H8.125V15.75H7.625V13.75Z" fill="#0A5078"/>
<path d="M8.875 13.75H9.375V15.75H8.875V13.75Z" fill="#0A5078"/>
<path d="M10.125 13.75H10.625V15.75H10.125V13.75Z" fill="#0A5078"/>
<path d="M7.625 13.75H8.125V14.25H7.625V13.75Z" fill="#00325A"/>
<path d="M8.875 13.75H9.375V14.25H8.875V13.75Z" fill="#00325A"/>
<path d="M10.125 13.75H10.625V14.25H10.125V13.75Z" fill="#00325A"/>
<path d="M11.125 14H7.25C7.112 14 7 13.888 7 13.75C7 13.612 7.112 13.5 7.25 13.5H11.125C11.263 13.5 11.375 13.612 11.375 13.75C11.375 13.888 11.263 14 11.125 14Z" fill="#0A5078"/>
<path d="M10.875 17.5V20.5H8V17.5C8 17.225 8.225 17 8.5 17H10.375C10.65 17 10.875 17.225 10.875 17.5Z" fill="#F0F0F0"/>
<path d="M10.375 17.25H8.5C8.362 17.25 8.25 17.362 8.25 17.5V20.5H10.625V17.5C10.625 17.362 10.513 17.25 10.375 17.25Z" fill="#C80A50"/>
<path d="M9.6875 20.25H9.1875C9.1185 20.25 9.0625 20.194 9.0625 20.125C9.0625 20.056 9.1185 20 9.1875 20H9.6875C9.7565 20 9.8125 20.056 9.8125 20.125C9.8125 20.194 9.7565 20.25 9.6875 20.25Z" fill="#0A5078"/>
<path d="M8.25 19.25H10.625V19.75H8.25V19.25Z" fill="#A00028"/>
<path d="M8.25 18H10.625V18.5H8.25V18Z" fill="#A00028"/>
<path d="M16.75 9.5V20.5H11.25V9.5L14 7.25L16.75 9.5Z" fill="#F0F0F0"/>
<path d="M16.75 9.5V10.155L14 7.8275L11.25 10.155V9.5L14 7.25L16.75 9.5Z" fill="#D2D2D2"/>
<path d="M17.25 10.25C17.193 10.25 17.1355 10.2305 17.0885 10.191L14 7.57751L10.9115 10.191C10.806 10.2798 10.6483 10.2673 10.5593 10.1615C10.47 10.0563 10.4833 9.89851 10.5885 9.80926L13.8385 7.05926C13.9318 6.98076 14.0683 6.98076 14.1615 7.05926L17.4115 9.80926C17.5168 9.89851 17.53 10.0563 17.4408 10.1615C17.3913 10.22 17.321 10.25 17.25 10.25Z" fill="#0A5078"/>
<path d="M15.75 18.75V20.5H12.25V18.75C12.25 17.7875 13.0375 17 14 17C14.48 17 14.92 17.1975 15.235 17.515C15.5525 17.83 15.75 18.27 15.75 18.75Z" fill="#FAB400"/>
<path d="M15.375 18.75V20.5H12.625V18.75C12.625 17.9875 13.245 17.375 14 17.375C14.7425 17.375 15.375 17.9725 15.375 18.75Z" fill="#C80A50"/>
<path d="M14 16C14.6904 16 15.25 15.4404 15.25 14.75C15.25 14.0596 14.6904 13.5 14 13.5C13.3096 13.5 12.75 14.0596 12.75 14.75C12.75 15.4404 13.3096 16 14 16Z" fill="#D2D2D2"/>
<path d="M14 15.75C14.6904 15.75 15.25 15.1904 15.25 14.5C15.25 13.8096 14.6904 13.25 14 13.25C13.3096 13.25 12.75 13.8096 12.75 14.5C12.75 15.1904 13.3096 15.75 14 15.75Z" fill="#0A5078"/>
<path d="M14 15.25C14.4142 15.25 14.75 14.9142 14.75 14.5C14.75 14.0858 14.4142 13.75 14 13.75C13.5858 13.75 13.25 14.0858 13.25 14.5C13.25 14.9142 13.5858 15.25 14 15.25Z" fill="#00A0C8"/>
<path d="M14.75 14.5C14.75 14.5425 14.7475 14.585 14.7375 14.625C14.68 14.27 14.3725 14 14 14C13.6275 14 13.32 14.27 13.2625 14.625C13.2525 14.585 13.25 14.5425 13.25 14.5C13.25 14.085 13.585 13.75 14 13.75C14.415 13.75 14.75 14.085 14.75 14.5Z" fill="#0082AA"/>
<path d="M14 12.5C14.6904 12.5 15.25 11.9404 15.25 11.25C15.25 10.5596 14.6904 10 14 10C13.3096 10 12.75 10.5596 12.75 11.25C12.75 11.9404 13.3096 12.5 14 12.5Z" fill="#D2D2D2"/>
<path d="M14 12.25C14.6904 12.25 15.25 11.6904 15.25 11C15.25 10.3096 14.6904 9.75 14 9.75C13.3096 9.75 12.75 10.3096 12.75 11C12.75 11.6904 13.3096 12.25 14 12.25Z" fill="#0A5078"/>
<path d="M14 11.75C14.4142 11.75 14.75 11.4142 14.75 11C14.75 10.5858 14.4142 10.25 14 10.25C13.5858 10.25 13.25 10.5858 13.25 11C13.25 11.4142 13.5858 11.75 14 11.75Z" fill="#00A0C8"/>
<path d="M14.75 11C14.75 11.0425 14.7475 11.085 14.7375 11.125C14.68 10.77 14.3725 10.5 14 10.5C13.6275 10.5 13.32 10.77 13.2625 11.125C13.2525 11.085 13.25 11.0425 13.25 11C13.25 10.585 13.585 10.25 14 10.25C14.415 10.25 14.75 10.585 14.75 11Z" fill="#0082AA"/>
<path d="M14.875 17.69V20.5H14.375V17.43C14.56 17.48 14.73 17.57 14.875 17.69Z" fill="#A00028"/>
<path d="M13.625 17.43V20.5H13.125V17.69C13.27 17.57 13.44 17.48 13.625 17.43Z" fill="#A00028"/>
<path d="M13.25 19.5H13C12.931 19.5 12.875 19.444 12.875 19.375C12.875 19.306 12.931 19.25 13 19.25H13.25C13.319 19.25 13.375 19.306 13.375 19.375C13.375 19.444 13.319 19.5 13.25 19.5Z" fill="#F0F0F0"/>
<path d="M19.1035 10.25H18.6035C18.4653 10.25 18.3535 10.138 18.3535 10C18.3535 9.862 18.4653 9.75 18.6035 9.75H19.1035C19.2418 9.75 19.3535 9.862 19.3535 10C19.3535 10.138 19.2418 10.25 19.1035 10.25Z" fill="#C80A50"/>
<path d="M18.4268 11.4268L18.0733 11.0733C17.9755 10.9755 17.9755 10.8175 18.0733 10.7198C18.171 10.622 18.329 10.622 18.4268 10.7198L18.7803 11.0733C18.878 11.171 18.878 11.329 18.7803 11.4268C18.6825 11.5245 18.5245 11.5245 18.4268 11.4268Z" fill="#00A0C8"/>
<path d="M18.0733 9.28025C17.9755 9.1825 17.9755 9.0245 18.0733 8.92675L18.4268 8.57325C18.5245 8.4755 18.6825 8.4755 18.7803 8.57325C18.878 8.671 18.878 8.829 18.7803 8.92675L18.4268 9.28025C18.329 9.378 18.171 9.378 18.0733 9.28025Z" fill="#FAB400"/>
<path d="M8.8965 9.75H9.3965C9.53475 9.75 9.6465 9.862 9.6465 10C9.6465 10.138 9.53475 10.25 9.3965 10.25H8.8965C8.75825 10.25 8.6465 10.138 8.6465 10C8.6465 9.862 8.75825 9.75 8.8965 9.75Z" fill="#C80A50"/>
<path d="M9.57325 8.57325L9.92675 8.92675C10.0245 9.0245 10.0245 9.1825 9.92675 9.28025C9.829 9.378 9.671 9.378 9.57325 9.28025L9.21975 8.92675C9.122 8.829 9.122 8.671 9.21975 8.57325C9.3175 8.4755 9.4755 8.4755 9.57325 8.57325Z" fill="#00A0C8"/>
<path d="M9.92675 10.7198C10.0245 10.8175 10.0245 10.9755 9.92675 11.0733L9.57325 11.4268C9.4755 11.5245 9.3175 11.5245 9.21975 11.4268C9.122 11.329 9.122 11.171 9.21975 11.0733L9.57325 10.7198C9.671 10.622 9.829 10.622 9.92675 10.7198Z" fill="#FAB400"/>
</svg>
